<?xml version="1.0" encoding="utf-8"?>
<!-- Generator: Adobe Illustrator 16.0.0, SVG Export Plug-In . SVG Version: 6.00 Build 0)  -->
<!DOCTYPE svg PUBLIC "-//W3C//DTD SVG 1.1//EN" "http://www.w3.org/Graphics/SVG/1.1/DTD/svg11.dtd">
<svg version="1.1" id="Layer_1" xmlns="http://www.w3.org/2000/svg" xmlns:xlink="http://www.w3.org/1999/xlink" x="0px" y="0px"
	 width="16px" height="13.2px" viewBox="0 0 16 13.2" enable-background="new 0 0 16 13.2" xml:space="preserve">
<g id="Layer_2" display="none">
	
		<rect x="-98.126" y="-88.584" display="inline" fill="#421212" stroke="#000000" stroke-width="1.5602" stroke-miterlimit="10" width="675" height="160.667"/>
</g>
<g id="Layer_1_1_">
	<rect x="-85.626" y="-83.959" display="none" fill="#C31F33" width="655.5" height="106.75"/>
	<path fill="#C31F33" d="M6.223,11.997c-0.072,0.032-0.14,0.012-0.208-0.01c-1.543-0.468-3.084-0.939-4.63-1.396
		c-0.217-0.063-0.292-0.152-0.291-0.377c0.007-3.037,0.005-6.07,0.005-9.105c0-0.039,0.013-0.079,0.019-0.116
		c0.12-0.058,0.193,0.032,0.273,0.079c1.533,0.881,3.063,1.771,4.6,2.649c0.195,0.11,0.272,0.228,0.271,0.462
		c-0.01,2.524-0.005,5.049-0.007,7.574C6.254,11.836,6.274,11.924,6.223,11.997z M11.65,1.09c-1.521,0.877-3.039,1.762-4.566,2.629
		c-0.229,0.13-0.311,0.269-0.309,0.527c0.01,2.484,0.006,4.969,0.009,7.452c0.001,0.104-0.041,0.223,0.062,0.33
		c0.066-0.016,0.135-0.025,0.201-0.045c1.52-0.456,3.035-0.914,4.555-1.37c0.459-0.137,0.373-0.108,0.373-0.521
		c0.002-2.926,0.002-5.848,0.002-8.771c0-0.111,0-0.224,0-0.351C11.809,0.969,11.734,1.042,11.65,1.09z M0,1.827
		c0.021,3.064,0.01,6.128,0.011,9.192c0,0.388,0.001,0.39,0.357,0.485c1.854,0.515,3.711,1.022,5.563,1.541
		c0.424,0.117,0.834,0.106,1.25-0.026c1.833-0.588,3.668-1.17,5.502-1.753c0.463-0.146,0.381-0.059,0.383-0.506
		c0.004-3.008-0.01-6.017,0.015-9.024c0.003-0.45-0.235-0.605-0.593-0.828c0,0.2,0,0.337,0,0.473
		c-0.002,2.995-0.002,5.989-0.002,8.982c0,0.373,0,0.375-0.357,0.491c-1.656,0.536-3.313,1.064-4.965,1.609
		c-0.424,0.141-0.829,0.145-1.251,0.021c-0.856-0.246-1.716-0.48-2.575-0.721c-0.831-0.232-1.663-0.465-2.496-0.691
		c-0.183-0.051-0.31-0.125-0.269-0.347c0.018-0.084,0.002-0.17,0.002-0.256c0-3.009,0.002-6.017,0.002-9.024
		c0-0.153,0-0.307,0-0.505C0.136,1.133-0.003,1.394,0,1.827z M15.466,12.163c0.128-0.449,0.248-0.902,0.388-1.348
		c0.099-0.314,0.139-0.631,0.138-0.96c-0.007-2.37,0-4.739-0.009-7.107c0-0.306,0.063-0.617-0.047-0.919
		C15.613,1.771,15.288,1.82,14.964,1.8c-0.168-0.009-0.229,0.062-0.218,0.222c0.006,0.085,0,0.17,0,0.255
		c0,2.355,0.033,4.711-0.016,7.065c-0.021,1.062,0.343,2.009,0.6,2.996C15.438,12.303,15.447,12.229,15.466,12.163z M15.346,1.36
		c0.154,0,0.311,0,0.465,0c0.097,0,0.172-0.03,0.172-0.139C15.984,0.995,16,0.766,15.968,0.544
		c-0.036-0.259-0.271-0.443-0.532-0.469c-0.41-0.039-0.678,0.227-0.686,0.721C14.738,1.47,14.691,1.35,15.26,1.36
		C15.288,1.362,15.314,1.361,15.346,1.36L15.346,1.36z"/>
</g>
</svg>
