<?xml version="1.0" encoding="utf-8"?>
<!-- Generator: Adobe Illustrator 16.0.0, SVG Export Plug-In . SVG Version: 6.00 Build 0)  -->
<!DOCTYPE svg PUBLIC "-//W3C//DTD SVG 1.1//EN" "http://www.w3.org/Graphics/SVG/1.1/DTD/svg11.dtd">
<svg version="1.1" id="Layer_1" xmlns="http://www.w3.org/2000/svg" xmlns:xlink="http://www.w3.org/1999/xlink" x="0px" y="0px"
	 width="16px" height="13.2px" viewBox="0 0 16 13.2" enable-background="new 0 0 16 13.2" xml:space="preserve">
<g id="Layer_2" display="none">
	
		<rect x="-27.334" y="-88.167" display="inline" fill="#421212" stroke="#000000" stroke-width="1.5602" stroke-miterlimit="10" width="675" height="160.666"/>
</g>
<g id="Layer_1_1_">
	<rect x="-14.834" y="-83.542" display="none" fill="#EB1C2D" width="655.5" height="106.75"/>
	<g>
		<path fill="#EB1C2D" d="M14.486,6.155c0.154,0.884,0.464,1.725,0.676,2.594c0.052,0.209,0.105,0.418,0.16,0.641
			c-0.258,0.1-0.499,0.066-0.729,0.049c-0.332-0.023-0.4,0.126-0.396,0.422c0.015,0.775,0.005,1.553,0.005,2.328
			c0,0.12,0.007,0.242-0.002,0.359c-0.034,0.41-0.24,0.631-0.574,0.627c-0.33-0.002-0.545-0.229-0.552-0.639
			c-0.013-0.836-0.005-1.674-0.005-2.511c0-0.14-0.002-0.278-0.01-0.416c-0.004-0.06-0.031-0.116-0.097-0.129
			c-0.103-0.021-0.144,0.05-0.146,0.133c-0.008,0.278-0.008,0.558-0.008,0.837c-0.002,0.617,0,1.233-0.002,1.852
			c0,0.121,0.01,0.242-0.01,0.359c-0.054,0.307-0.285,0.51-0.568,0.514c-0.31,0.006-0.549-0.211-0.569-0.565
			c-0.021-0.377-0.007-0.758-0.007-1.136c0-0.459,0.004-0.916,0-1.375c-0.006-0.741,0.074-0.645-0.62-0.652
			c-0.138-0.002-0.276,0-0.481,0c0.211-1.186,0.652-2.271,0.861-3.411c0.057-0.26,0.027-0.533,0.109-0.713
			c-0.01,0.125-0.084,0.303-0.236,0.438c-0.156,0.493-0.301,0.992-0.475,1.479c-0.14,0.399-0.238,0.469-0.664,0.366
			C9.954,7.56,9.898,7.627,9.829,7.756C9.596,8.174,9.363,8.592,9.132,9.013C9.012,9.23,8.988,9.458,9.061,9.702
			c0.129,0.441,0.24,0.885,0.362,1.326c0.033,0.116,0.083,0.268-0.094,0.273c-0.324,0.019-0.32,0.222-0.315,0.455
			c0.01,0.316,0.016,0.639-0.002,0.957c-0.015,0.295-0.193,0.465-0.438,0.461c-0.24-0.004-0.411-0.178-0.426-0.475
			c-0.016-0.318,0.002-0.639-0.008-0.957c-0.004-0.13,0.065-0.283-0.094-0.38c-0.192,0.007-0.138,0.157-0.14,0.257
			c-0.009,0.358,0.008,0.719-0.009,1.077c-0.015,0.298-0.184,0.47-0.428,0.476c-0.248,0.007-0.438-0.152-0.462-0.45
			c-0.028-0.337-0.008-0.679-0.013-1.017c-0.002-0.135,0.044-0.34-0.123-0.36c-0.364-0.046-0.28-0.249-0.218-0.466
			c0.018-0.057,0.04-0.112,0.055-0.17c0.41-1.527,0.389-1.646-0.488-2.944c-0.085-0.123-0.141-0.17-0.325-0.126
			C5.408,7.754,5.249,7.611,5.236,7.091C5.22,6.435,5.232,5.774,5.231,5.116c0-0.16-0.001-0.319-0.013-0.478
			c-0.008-0.101-0.041-0.2-0.175-0.185c-0.1,0.012-0.121,0.094-0.125,0.173c-0.007,0.16-0.01,0.32-0.01,0.48
			c-0.001,2.354,0,4.708-0.001,7.063c0,0.16,0.015,0.322-0.014,0.479c-0.056,0.313-0.34,0.529-0.64,0.521
			c-0.273-0.008-0.54-0.213-0.6-0.498c-0.034-0.152-0.022-0.316-0.022-0.478C3.63,10.92,3.633,9.64,3.628,8.362
			C3.627,8.179,3.69,7.967,3.489,7.792C3.277,7.915,3.345,8.111,3.344,8.267c-0.006,1.257-0.002,2.515-0.005,3.771
			c-0.001,0.2,0,0.402-0.042,0.596c-0.076,0.354-0.369,0.57-0.683,0.535c-0.295-0.031-0.53-0.273-0.565-0.604
			c-0.017-0.156-0.007-0.318-0.007-0.479c0-2.354,0.003-4.709-0.006-7.063c0-0.195,0.127-0.548-0.148-0.557
			C1.581,4.456,1.721,4.81,1.715,5C1.693,5.539,1.716,6.079,1.703,6.616C1.695,7.018,1.717,7.383,1.421,7.778
			C1.161,8.122,1.198,8.686,1.11,9.157c-0.213,1.135-0.421,2.271-0.632,3.405c-0.004,0.021,0,0.045-0.01,0.06
			c-0.096,0.151,0.013,0.492-0.273,0.439c-0.304-0.059-0.104-0.328-0.073-0.498c0.265-1.449,0.543-2.896,0.813-4.343
			C0.981,7.971,1.06,7.722,0.888,7.47C0.82,7.368,0.841,7.2,0.84,7.063C0.836,6.104,0.873,5.146,0.826,4.189
			c-0.033-0.65,0.521-1.421,1.276-1.485C3.018,2.628,3.939,2.606,4.848,2.71c0.789,0.087,1.269,0.678,1.285,1.48
			C6.15,5.029,6.138,5.867,6.137,6.705c0,0.188-0.005,0.354,0.275,0.331c0.174-0.015,0.269,0.146,0.352,0.289
			c0.091,0.152,0.195,0.299,0.282,0.459c0.148,0.268,0.352,0.424,0.676,0.375c0.078-0.015,0.162-0.018,0.238,0
			c0.603,0.12,0.979-0.141,1.226-0.682c0.104-0.227,0.222-0.485,0.56-0.449C9.953,7.05,9.943,6.874,9.98,6.75
			c0.236-0.762,0.467-1.524,0.705-2.284c0.061-0.189,0.127-0.379,0.222-0.552c0.214-0.399,0.532-0.624,1.01-0.612
			c0.659,0.017,1.317,0.023,1.976-0.003c0.564-0.022,0.944,0.244,1.115,0.729c0.344,0.977,0.641,1.968,0.93,2.962
			c0.104,0.357-0.049,0.602-0.326,0.667c-0.248,0.059-0.449-0.072-0.568-0.41c-0.156-0.451-0.29-0.91-0.432-1.366
			c-0.188-0.154-0.221-0.378-0.242-0.484C14.425,5.569,14.445,5.865,14.486,6.155z M4.587,1.145C4.58,0.527,4.105,0.041,3.499,0.025
			C2.897,0.01,2.337,0.548,2.329,1.152C2.32,1.766,2.846,2.283,3.477,2.282C4.124,2.282,4.596,1.799,4.587,1.145z M12.939,0.681
			c-0.617-0.004-1.097,0.487-1.076,1.104c0.018,0.59,0.496,1.039,1.09,1.026c0.588-0.013,1.061-0.49,1.054-1.07
			C14,1.161,13.52,0.684,12.939,0.681z M7.111,6.763c0.001,0.481,0.438,0.909,0.92,0.901c0.475-0.012,0.854-0.392,0.867-0.873
			c0.013-0.522-0.355-0.91-0.87-0.916C7.526,5.87,7.11,6.271,7.111,6.763z"/>
	</g>
</g>
</svg>
