<?xml version="1.0" encoding="utf-8"?>
<!-- Generator: Adobe Illustrator 16.0.0, SVG Export Plug-In . SVG Version: 6.00 Build 0)  -->
<!DOCTYPE svg PUBLIC "-//W3C//DTD SVG 1.1//EN" "http://www.w3.org/Graphics/SVG/1.1/DTD/svg11.dtd">
<svg version="1.1" id="Layer_1" xmlns="http://www.w3.org/2000/svg" xmlns:xlink="http://www.w3.org/1999/xlink" x="0px" y="0px"
	 width="17.67px" height="13.2px" viewBox="0 0 17.67 13.2" enable-background="new 0 0 17.67 13.2" xml:space="preserve">
<g id="Layer_2" display="none">
	
		<rect x="-217.664" y="-88.095" display="inline" fill="#421212" stroke="#000000" stroke-width="1.5602" stroke-miterlimit="10" width="675" height="160.666"/>
</g>
<g id="Layer_1_1_">
	<rect x="-205.164" y="-83.47" display="none" fill="#F99D26" width="655.5" height="106.75"/>
	<path fill="#F99D26" d="M4.13,11.518c0,0.439,0.003,0.878-0.001,1.316c-0.003,0.313-0.006,0.313-0.33,0.318
		c-0.258,0.004-0.517,0.004-0.774,0c-0.3-0.005-0.305-0.008-0.309-0.298c-0.004-0.465,0.001-0.929-0.001-1.394
		c-0.003-0.313-0.012-0.319-0.332-0.326c-0.257-0.004-0.516,0.004-0.773-0.002c-0.18-0.002-0.253,0.074-0.25,0.258
		c0.008,0.438,0.005,0.878,0.002,1.314c-0.002,0.496,0.048,0.442-0.465,0.446c-0.22,0.003-0.438-0.004-0.657,0.003
		c-0.159,0.004-0.241-0.051-0.24-0.22c0.004-0.94,0.003-1.886,0.001-2.826c-0.002-0.192,0.105-0.233,0.272-0.231
		c0.528,0.004,1.059,0,1.586,0c0.646,0,1.29-0.002,1.936,0.002c0.32,0.002,0.33,0.015,0.334,0.324
		C4.133,10.642,4.13,11.079,4.13,11.518z M3.87,9.551c0.085,0,0.191,0.033,0.24-0.068c0.047-0.104-0.044-0.168-0.097-0.234
		C3.433,8.493,2.85,7.735,2.264,6.982C2.087,6.758,2.043,6.755,1.86,6.992C1.276,7.749,0.701,8.508,0.122,9.267
		C0.076,9.329,0.012,9.39,0.039,9.474C0.077,9.59,0.188,9.551,0.271,9.551C0.864,9.555,1.457,9.554,2.05,9.554
		C2.657,9.554,3.264,9.555,3.87,9.551z M17.024,8.788c0.637,0,0.637,0,0.625-0.631c-0.006-0.314-0.006-0.318-0.316-0.318
		c-1.029-0.004-2.063-0.01-3.092,0c-0.766,0.009-0.627-0.149-0.65,0.688c-0.006,0.204,0.067,0.27,0.268,0.266
		c0.578-0.008,1.158-0.004,1.738-0.004C16.071,8.788,16.55,8.788,17.024,8.788z M8.651,0.385c0,3.024,0,6.048,0,9.071
		c0,1.111,0.002,2.223,0,3.334c0,0.391-0.002,0.395-0.38,0.395c-1.085,0.002-2.171,0.002-3.256,0c-0.355,0-0.36-0.004-0.36-0.375
		c-0.003-2.08-0.001-4.16-0.001-6.241c-0.002-2.003-0.002-4.007-0.002-6.01c0-0.103,0.008-0.207,0-0.309
		C4.641,0.067,4.713-0.005,4.9,0c0.438,0.009,0.878,0.003,1.318,0.003c0.685,0,1.37-0.003,2.054,0
		C8.649,0.003,8.651,0.005,8.651,0.385z M5.315,2.506c0.008,0.308,0.008,0.308,0.331,0.313c0.026,0.002,0.052,0.002,0.077,0
		c0.6-0.01,0.56,0.093,0.56-0.549c0.001-0.564,0.016-0.478-0.468-0.478c-0.563-0.002-0.492-0.063-0.5,0.482
		C5.315,2.354,5.315,2.43,5.315,2.506z M5.315,4.502c0,0.038,0,0.077,0,0.116C5.318,5.055,5.318,5.06,5.758,5.055
		c0.559-0.008,0.526,0.103,0.526-0.541c0-0.542,0.057-0.515-0.476-0.519C5.217,3.991,5.323,4.019,5.315,4.502z M6.284,11.236
		c-0.006-0.629,0.079-0.565-0.583-0.567c-0.383-0.002-0.383,0.002-0.386,0.381c0,0.039,0,0.076,0,0.115
		c0.008,0.651-0.075,0.553,0.583,0.563c0.013,0,0.026,0,0.039,0c0.338-0.004,0.34-0.004,0.347-0.336
		C6.286,11.338,6.286,11.288,6.284,11.236z M6.284,9.01c0-0.078,0.002-0.155-0.001-0.231C6.275,8.467,6.275,8.467,5.957,8.461
		c-0.039,0-0.076,0-0.115,0C5.243,8.467,5.32,8.395,5.318,9.002c-0.003,0.541-0.048,0.486,0.5,0.486
		C6.332,9.489,6.281,9.547,6.284,9.01z M6.284,6.603c0.002-0.025,0.002-0.052,0-0.078c-0.011-0.3-0.011-0.3-0.301-0.308
		c-0.05-0.002-0.103-0.001-0.154,0C5.271,6.223,5.318,6.145,5.315,6.734c0,0.092,0.008,0.182,0,0.271
		C5.298,7.2,5.376,7.288,5.578,7.284C6.429,7.271,6.268,7.375,6.284,6.603z M7.991,11.191c-0.002-0.558,0.061-0.524-0.514-0.524
		c-0.089,0-0.179,0-0.269,0.004c-0.123,0.004-0.188,0.065-0.186,0.192c0.002,0.218,0.003,0.437-0.002,0.655
		c-0.002,0.143,0.058,0.216,0.206,0.208c0.076-0.004,0.153,0.001,0.231,0C8.017,11.715,7.99,11.833,7.991,11.191z M7.991,8.704
		c0.013-0.187-0.072-0.25-0.254-0.244C6.876,8.481,7.044,8.333,7.023,9.17c-0.002,0.037,0.002,0.076,0,0.115
		C7.017,9.435,7.09,9.497,7.233,9.491c0.078-0.004,0.155,0.002,0.233,0C8.014,9.482,7.991,9.573,7.99,8.975
		C7.99,8.885,7.986,8.793,7.991,8.704z M7.991,6.569C7.986,6.22,7.985,6.215,7.62,6.217C6.942,6.225,7.03,6.12,7.022,6.806
		C7.021,6.87,7.021,6.935,7.023,6.999C7.033,7.26,7.045,7.27,7.316,7.282c0.051,0.004,0.103,0,0.155,0
		c0.56-0.004,0.52,0.053,0.52-0.52C7.991,6.7,7.993,6.635,7.991,6.569z M7.991,4.552C7.986,3.938,8.058,4,7.434,3.996
		c-0.063,0-0.127,0.003-0.192,0c-0.162-0.002-0.227,0.08-0.22,0.24c0.007,0.192,0.007,0.386,0,0.578
		C7.015,4.995,7.094,5.072,7.273,5.057c0.078-0.008,0.155,0,0.231-0.001C7.99,5.044,7.994,5.163,7.991,4.552z M7.991,2.242
		c0.003-0.539-0.009-0.449-0.46-0.449c-0.58,0-0.501-0.071-0.508,0.511c0,0.077-0.002,0.153,0,0.231
		c0.01,0.273,0.01,0.273,0.281,0.283c0.04,0.003,0.077,0.003,0.116,0.001C8.036,2.809,7.987,2.919,7.991,2.242z M13.146,2.543
		c0.004,0.103,0.004,0.207,0.004,0.311c0,1.654,0,3.309,0,4.964c0,1.616,0,3.231,0,4.849c0,0.078,0.004,0.154,0,0.232
		c-0.008,0.292-0.008,0.298-0.31,0.299c-1.126,0.002-2.25,0.002-3.375,0c-0.286-0.001-0.293-0.007-0.293-0.309
		c-0.002-1.811,0.002-3.62-0.004-5.43c0-0.182,0.054-0.319,0.164-0.458c1.164-1.469,2.323-2.942,3.483-4.412
		c0.031-0.042,0.063-0.08,0.097-0.12c0.045-0.057,0.103-0.078,0.17-0.053C13.142,2.438,13.146,2.492,13.146,2.543z M11.606,5.129
		c0.059,0.092,0.166,0.048,0.252,0.058c0.039,0.004,0.078,0,0.117,0c0.711,0.005,0.711,0.005,0.711-0.718
		c0-0.154,0.002-0.31-0.002-0.465c0-0.06,0.014-0.138-0.067-0.16c-0.075-0.022-0.119,0.038-0.159,0.085
		c-0.254,0.311-0.507,0.619-0.753,0.936C11.647,4.937,11.535,5.012,11.606,5.129z M9.867,7.812c0.296,0.011,0.593,0.001,0.888,0.003
		c0.143,0,0.21-0.064,0.208-0.212c-0.006-0.231-0.002-0.464-0.002-0.695c0-0.207,0.004-0.412-0.001-0.619
		c-0.003-0.069,0.036-0.163-0.059-0.202c-0.09-0.037-0.137,0.044-0.185,0.102c-0.259,0.319-0.521,0.64-0.774,0.963
		C9.854,7.26,9.757,7.37,9.692,7.493C9.601,7.674,9.67,7.803,9.867,7.812z M10.282,9.135c0.013-0.002,0.025,0,0.015,0
		c0.72-0.018,0.72-0.018,0.664-0.68c-0.002-0.024,0-0.052-0.004-0.076c-0.011-0.09-0.062-0.142-0.149-0.142
		c-0.324-0.003-0.646-0.002-0.968-0.002c-0.11,0-0.157,0.058-0.178,0.161C9.539,9.021,9.646,9.146,10.282,9.135z M10.914,9.613
		c-0.083-0.142-0.312-0.042-0.472-0.06c-0.037-0.006-0.076-0.002-0.114-0.002c-0.741,0-0.738,0-0.669,0.668
		c0.013,0.119,0.044,0.199,0.177,0.199c0.321,0,0.642,0,0.962-0.002c0.064,0,0.145-0.021,0.148-0.09
		C10.961,10.086,11.034,9.822,10.914,9.613z M10.963,11.043c-0.017-0.133-0.071-0.178-0.192-0.176c-0.309,0.002-0.615,0.002-0.924,0
		c-0.125,0-0.172,0.059-0.188,0.186c-0.077,0.65-0.059,0.677,0.581,0.677c0.024,0,0.051,0,0.077,0
		C11.015,11.73,11.039,11.702,10.963,11.043z M12.687,11.081c0-0.013,0-0.025,0-0.037c0.004-0.108-0.041-0.174-0.155-0.174
		c-0.323,0-0.646,0-0.97,0c-0.094,0-0.146,0.047-0.144,0.141c0.002,0.221-0.058,0.473,0.033,0.648
		c0.089,0.17,0.356,0.043,0.543,0.07c0.013,0.002,0.026,0,0.039,0C12.737,11.729,12.737,11.729,12.687,11.081z M12.69,9.754
		c-0.014-0.146-0.063-0.207-0.209-0.203c-0.281,0.006-0.563,0.009-0.844,0c-0.168-0.006-0.228,0.062-0.225,0.224
		c0.012,0.792-0.092,0.628,0.607,0.646C12.753,10.42,12.748,10.42,12.69,9.754z M11.672,9.124c0.243-0.011,0.487,0.002,0.731-0.004
		c0.268-0.008,0.281-0.02,0.281-0.287c0.002-0.717,0.063-0.584-0.586-0.599c-0.013,0-0.024,0-0.039,0
		c-0.725,0.021-0.636-0.146-0.648,0.612C11.407,9.042,11.467,9.131,11.672,9.124z M12.074,6.925c-0.015,0-0.026,0-0.039,0
		c-0.683,0-0.683,0-0.621,0.681c0.001,0.012,0.001,0.025,0.001,0.038c-0.002,0.11,0.054,0.164,0.164,0.164
		c0.309,0,0.617,0.005,0.925,0.003c0.124,0,0.173-0.066,0.187-0.193C12.765,6.96,12.735,6.925,12.074,6.925z M12.074,5.617
		c-0.013,0-0.025,0-0.039,0c-0.683,0-0.688,0.007-0.621,0.678c0.001,0.013,0.001,0.024,0.001,0.037
		c0.001,0.107,0.055,0.17,0.163,0.17c0.31,0.003,0.616,0.003,0.924,0c0.122-0.001,0.174-0.064,0.188-0.191
		C12.769,5.662,12.733,5.617,12.074,5.617z M17.667,9.402c0.004,1.162,0.004,2.325,0,3.487c0,0.301-0.007,0.308-0.297,0.309
		c-1.162,0.004-2.325,0.004-3.488,0c-0.281-0.001-0.285-0.008-0.288-0.31c-0.003-0.595,0-1.188,0-1.783c0-0.567-0.003-1.138,0-1.705
		c0.003-0.303,0.007-0.31,0.291-0.31c1.163-0.004,2.324-0.004,3.487,0C17.66,9.09,17.667,9.097,17.667,9.402z M14.651,10.42
		c0.039,0,0.076,0,0.115,0l0,0c0.155,0,0.312,0.006,0.465,0c0.303-0.014,0.195-0.252,0.201-0.406c0.016-0.409,0-0.439-0.199-0.446
		c-0.311-0.012-0.618-0.002-0.928-0.004c-0.123,0-0.183,0.054-0.205,0.179C14.001,10.314,14.086,10.422,14.651,10.42z M15.44,11.139
		c-0.008-0.188-0.053-0.292-0.265-0.271c-0.127,0.014-0.257,0.004-0.386,0.004c-0.744,0-0.76,0.017-0.689,0.647
		c0.002,0.013,0.002,0.024,0.002,0.038c0.006,0.129,0.078,0.176,0.201,0.174c0.192-0.004,0.387,0,0.578,0
		C15.469,11.73,15.463,11.73,15.44,11.139z M17.147,10.926c-0.067-0.131-0.285-0.037-0.437-0.055c-0.05-0.006-0.103,0-0.151,0
		c-0.166,0-0.334,0.004-0.5,0c-0.156-0.004-0.213,0.088-0.19,0.219c0.037,0.211-0.138,0.543,0.124,0.609
		c0.336,0.088,0.711,0.023,1.07,0.023c0.055,0,0.106-0.027,0.111-0.083C17.196,11.4,17.257,11.14,17.147,10.926z M17.192,9.771
		c-0.002-0.013-0.004-0.026-0.004-0.038c0-0.109-0.055-0.167-0.164-0.167c-0.322,0-0.645-0.001-0.967,0
		c-0.082,0-0.17,0.022-0.176,0.114c-0.018,0.229-0.09,0.482,0.034,0.678c0.09,0.143,0.312,0.046,0.474,0.063
		c0.051,0.006,0.104,0.002,0.155,0.002C17.256,10.42,17.256,10.42,17.192,9.771z"/>
</g>
</svg>
