<?xml version="1.0" encoding="utf-8"?>
<!-- Generator: Adobe Illustrator 16.0.0, SVG Export Plug-In . SVG Version: 6.00 Build 0)  -->
<!DOCTYPE svg PUBLIC "-//W3C//DTD SVG 1.1//EN" "http://www.w3.org/Graphics/SVG/1.1/DTD/svg11.dtd">
<svg version="1.1" id="Layer_1" xmlns="http://www.w3.org/2000/svg" xmlns:xlink="http://www.w3.org/1999/xlink" x="0px" y="0px"
	 width="12.5px" height="13.2px" viewBox="0 0 12.5 13.2" enable-background="new 0 0 12.5 13.2" xml:space="preserve">
<g id="Layer_2" display="none">
	
		<rect x="-165.398" y="-88.334" display="inline" fill="#421212" stroke="#000000" stroke-width="1.5602" stroke-miterlimit="10" width="675" height="160.667"/>
</g>
<g id="Layer_1_1_">
	<rect x="-152.898" y="-83.709" display="none" fill="#8F1838" width="655.5" height="106.75"/>
	<path fill="#8F1838" d="M8.708,13.167c-0.226-0.029-0.235-0.188-0.233-0.367c0.004-0.873,0.002-1.744,0.002-2.616
		c0-1.347,0.004-2.694-0.006-4.041c-0.002-0.277,0.075-0.48,0.283-0.673c0.764-0.706,1.51-1.43,2.262-2.146
		c0.026-0.026,0.053-0.056,0.084-0.078c0.099-0.073,0.168-0.239,0.31-0.188c0.157,0.056,0.077,0.224,0.079,0.341
		c0.006,1.09,0.003,2.18,0.003,3.271c0,2.025,0.001,4.053-0.001,6.08c0,0.158,0.06,0.348-0.166,0.418
		C10.451,13.211,9.58,13.211,8.708,13.167z M5.126,7.022c-0.091-0.085-0.164-0.239-0.308-0.19c-0.181,0.06-0.102,0.243-0.102,0.37
		c-0.006,1.836-0.004,3.674-0.004,5.51c0,0.052,0.002,0.104,0,0.154c-0.006,0.189,0.08,0.286,0.275,0.285
		c0.835-0.002,1.669-0.002,2.505,0c0.172,0,0.264-0.079,0.27-0.251c0.004-0.077,0.002-0.153,0.002-0.231c0-1.85,0-3.698,0-5.547
		c0-0.092,0.008-0.183-0.006-0.271c-0.023-0.153-0.113-0.187-0.24-0.086c-0.08,0.063-0.148,0.142-0.222,0.214
		C6.934,7.34,6.569,7.702,6.212,8.058C5.831,7.694,5.479,7.357,5.126,7.022z M5.896,6.672c0.293,0.286,0.239,0.339,0.588-0.01
		c1.506-1.508,3.014-3.017,4.522-4.521c0.125-0.125,0.227-0.33,0.396-0.34c0.154-0.009,0.244,0.203,0.369,0.309
		c0.172,0.146,0.219,0.14,0.268-0.08c0.138-0.599,0.268-1.2,0.393-1.802c0.051-0.235,0.021-0.259-0.231-0.202
		c-0.575,0.127-1.149,0.256-1.724,0.391c-0.078,0.018-0.188-0.01-0.222,0.113c0.033,0.148,0.166,0.221,0.261,0.321
		c0.229,0.241,0.232,0.192-0.015,0.439C9.158,2.635,7.814,3.979,6.47,5.32C6.381,5.408,6.312,5.521,6.102,5.6
		c-0.109-0.131-0.226-0.301-0.37-0.447C5.247,4.657,4.755,4.17,4.263,3.681C4.042,3.462,4.038,3.465,3.808,3.687
		C3.779,3.714,3.753,3.741,3.726,3.769c-1.09,1.089-2.184,2.174-3.268,3.268c-0.54,0.547-0.558,0.366,0.01,0.945
		c0.193,0.198,0.203,0.194,0.42-0.022c0.628-0.623,1.255-1.25,1.879-1.877C3.183,5.663,3.594,5.24,4.009,4.816
		C4.67,5.467,5.282,6.069,5.896,6.672z M3.935,6.536c0-0.084,0.035-0.19-0.077-0.234C3.755,6.261,3.692,6.345,3.629,6.405
		C2.792,7.2,1.96,8,1.12,8.792C0.97,8.936,0.906,9.094,0.908,9.303c0.006,1.166,0.001,2.332,0.004,3.501
		c0.001,0.323,0.022,0.345,0.355,0.346c0.757,0.004,1.513,0.004,2.271,0.001c0.393-0.001,0.397-0.007,0.397-0.419
		c0.002-1.015,0.001-2.026,0.001-3.041C3.936,8.639,3.938,7.586,3.935,6.536z"/>
</g>
</svg>
