<?xml version="1.0" encoding="utf-8"?>
<!-- Generator: Adobe Illustrator 16.0.0, SVG Export Plug-In . SVG Version: 6.00 Build 0)  -->
<!DOCTYPE svg PUBLIC "-//W3C//DTD SVG 1.1//EN" "http://www.w3.org/Graphics/SVG/1.1/DTD/svg11.dtd">
<svg version="1.1" id="Layer_1" xmlns="http://www.w3.org/2000/svg" xmlns:xlink="http://www.w3.org/1999/xlink" x="0px" y="0px"
	 width="15.632px" height="13.199px" viewBox="0 0 15.632 13.199" enable-background="new 0 0 15.632 13.199" xml:space="preserve">
<g id="Layer_2" display="none">
	
		<rect x="-294.628" y="-88.012" display="inline" fill="#421212" stroke="#000000" stroke-width="1.5602" stroke-miterlimit="10" width="675" height="160.667"/>
</g>
<g id="Layer_1_1_">
	<rect x="-282.128" y="-83.387" display="none" fill="#007DBC" width="655.5" height="106.75"/>
	<path fill="#007DBC" d="M15.487,0.479c0.019,0.043,0.035,0.069,0.038,0.096c0.063,0.696-0.014,0.838-0.643,1.13
		c-0.879,0.408-1.672,0.18-2.426-0.338c-0.162-0.11-0.285-0.348-0.486-0.313c-0.164,0.027-0.301,0.202-0.453,0.309
		c-0.82,0.568-1.696,0.633-2.613,0.277c-0.322-0.125-0.63-0.284-0.896-0.506C7.846,0.997,7.73,1.005,7.566,1.131
		C7.08,1.498,6.542,1.741,5.927,1.83C5.166,1.938,4.516,1.708,3.919,1.266C3.577,1.014,3.584,1.009,3.225,1.279
		C2.722,1.655,2.18,1.921,1.526,1.909C1.014,1.898,0.581,1.701,0.185,1.4C0.025,1.279-0.06,0.677,0.051,0.526
		c0.072-0.1,0.154-0.037,0.228-0.008c0.333,0.137,0.669,0.24,1.031,0.277C2.064,0.871,2.724,0.671,3.316,0.21
		c0.325-0.252,0.33-0.247,0.69-0.024c0.518,0.323,1.069,0.549,1.685,0.589C6.366,0.818,6.959,0.608,7.485,0.19
		c0.298-0.237,0.303-0.229,0.604,0.004c0.848,0.662,1.771,0.741,2.754,0.358c0.308-0.119,0.6-0.271,0.869-0.467
		c0.125-0.09,0.238-0.134,0.381-0.01c1.003,0.873,2.107,0.929,3.283,0.404C15.399,0.47,15.432,0.479,15.487,0.479z M15.537,3.146
		c-0.013-0.314-0.024-0.328-0.316-0.215c-0.295,0.114-0.592,0.215-0.907,0.25c-0.798,0.089-1.51-0.122-2.118-0.64
		C12.001,2.38,11.869,2.32,11.65,2.503c-0.24,0.201-0.537,0.326-0.833,0.44C9.83,3.325,8.91,3.23,8.066,2.566
		C7.777,2.34,7.783,2.346,7.472,2.582c-0.62,0.474-1.303,0.692-2.091,0.536c-0.517-0.1-0.986-0.295-1.423-0.579
		C3.636,2.331,3.64,2.334,3.352,2.564C2.648,3.126,1.858,3.323,0.974,3.126C0.719,3.071,0.477,2.987,0.241,2.883
		c-0.068-0.031-0.14-0.047-0.192,0.022c-0.1,0.128-0.031,0.735,0.107,0.845c0.552,0.445,1.163,0.657,1.879,0.493
		C2.539,4.129,2.976,3.89,3.354,3.552c0.179-0.16,0.283-0.143,0.455,0.005c0.84,0.714,1.787,0.857,2.815,0.483
		c0.353-0.13,0.679-0.314,0.971-0.547c0.136-0.107,0.239-0.105,0.376,0.003c0.293,0.232,0.624,0.409,0.974,0.542
		c0.76,0.286,1.512,0.287,2.245-0.096c0.203-0.107,0.403-0.222,0.565-0.387c0.16-0.164,0.291-0.187,0.463-0.005
		c0.188,0.197,0.428,0.339,0.67,0.463c0.792,0.402,1.564,0.39,2.322-0.104c0.242-0.155,0.381-0.338,0.324-0.6
		C15.537,3.232,15.539,3.189,15.537,3.146z M15.541,9.854c-0.983,1.203-2.123,2.211-3.562,2.846
		c-1.446,0.639-2.917,0.648-4.398,0.133c-1.271-0.443-2.417-1.116-3.492-1.915C4.042,10.882,4,10.842,3.954,10.809
		c-0.23-0.16-0.235-0.164-0.386,0.075c-0.354,0.563-0.778,1.063-1.309,1.472c-0.519,0.399-1.096,0.674-1.742,0.797
		c-0.133,0.025-0.304,0.102-0.4-0.03c-0.086-0.118,0.045-0.241,0.104-0.351c0.289-0.529,0.536-1.078,0.712-1.655
		c0.385-1.263,0.252-2.493-0.27-3.689C0.509,7.072,0.318,6.733,0.15,6.385C0.042,6.159,0.083,6.093,0.327,6.112
		c0.375,0.027,0.73,0.14,1.071,0.297C2.228,6.79,2.876,7.384,3.39,8.132c0.104,0.151,0.203,0.308,0.336,0.509
		c0.75-0.578,1.498-1.082,2.297-1.508c0.763-0.404,1.553-0.741,2.398-0.92c1.386-0.29,2.709-0.089,3.963,0.558
		c1.244,0.642,2.258,1.561,3.137,2.641C15.645,9.564,15.684,9.676,15.541,9.854z M12.405,9.025c-0.016-0.496-0.45-0.918-0.946-0.918
		c-0.52-0.002-0.949,0.435-0.945,0.959c0.003,0.523,0.438,0.943,0.967,0.935C12.003,9.991,12.421,9.55,12.405,9.025z"/>
</g>
</svg>
