<?xml version="1.0" encoding="utf-8"?>
<!-- Generator: Adobe Illustrator 16.0.0, SVG Export Plug-In . SVG Version: 6.00 Build 0)  -->
<!DOCTYPE svg PUBLIC "-//W3C//DTD SVG 1.1//EN" "http://www.w3.org/Graphics/SVG/1.1/DTD/svg11.dtd">
<svg version="1.1" id="Layer_1" xmlns="http://www.w3.org/2000/svg" xmlns:xlink="http://www.w3.org/1999/xlink" x="0px" y="0px"
	 width="25.803px" height="13.199px" viewBox="0 0 25.803 13.199" enable-background="new 0 0 25.803 13.199" xml:space="preserve">
<g id="Layer_2" display="none">
	
		<rect x="-266.712" y="-88.058" display="inline" fill="#421212" stroke="#000000" stroke-width="1.5602" stroke-miterlimit="10" width="675" height="160.666"/>
</g>
<g id="Layer_1_1_">
	<rect x="-254.212" y="-83.433" display="none" fill="#48773E" width="655.5" height="106.75"/>
	<path fill="#48773E" d="M8.015,5.473C8.339,5.209,8.809,5.28,9.126,4.99c0.073-0.065,0.201,0,0.265,0.095
		c0.067,0.099,0.13,0.201,0.193,0.302c0.035,0.017,0.069,0.097,0.104,0c0.023-0.082-0.015-0.26,0.157-0.13
		c0.131,0.099,0.208,0.279,0.425,0.161c0.086-0.048,0.159,0.036,0.205,0.111c0.058,0.099,0.044,0.195-0.026,0.286
		c-0.131,0.159-0.301,0.22-0.5,0.218C9.721,6.031,9.516,5.939,9.308,5.855C8.896,5.695,8.479,5.527,8.02,5.569
		C8.016,5.538,8.015,5.505,8.015,5.473z M25.572,6.962c-1.255,1.647-2.785,2.987-4.563,4.047c-2.551,1.517-5.325,2.205-8.771,2.19
		c-4.561-0.131-8.684-2.15-11.877-6.063C0.316,7.085,0.274,7.028,0.234,6.974c-0.313-0.432-0.311-0.349,0-0.741
		C2.744,3.039,5.96,0.962,9.98,0.273c5.395-0.924,10.114,0.504,14.104,4.276c0.542,0.511,1.033,1.073,1.478,1.676
		C25.852,6.619,25.908,6.519,25.572,6.962z M8.645,3.263c-0.041,0.088,0.058,0.143,0.151,0.15c0.202-0.002,0.5-0.207,0.553-0.388
		c0.024-0.08,0.039-0.168-0.044-0.231c-0.058-0.046-0.12-0.05-0.188-0.029C8.859,2.836,8.743,3.05,8.645,3.263z M8.015,4.604
		C8.047,4.6,8.087,4.606,8.111,4.591c0.336-0.243,0.596-0.568,1.016-0.82C8.456,3.537,8.131,3.811,8.015,4.604z M11.288,9.559
		c0.229-0.271,0.303-0.576,0.292-0.912c-0.01-0.268,0.114-0.455,0.289-0.64c0.339-0.358,0.323-0.422-0.079-0.705
		c-0.338-0.237-0.582-0.521-0.523-0.989c0.183,0.021,0.244,0.158,0.339,0.252c0.109,0.111,0.207,0.237,0.327,0.334
		c0.188,0.151,0.502,0.086,0.692-0.122c0.156-0.176,0.142-0.304-0.075-0.535c-0.179-0.188-0.374-0.363-0.554-0.552
		c-0.063-0.067-0.169-0.137-0.069-0.283c0.181-0.007,0.283,0.157,0.428,0.23c0.312,0.159,0.624,0.303,0.69,0.708
		c0.02,0.14,0.173,0.218,0.307,0.26c0.424,0.141,0.852,0.273,1.165,0.641c0.197-0.206,0.315-0.393,0.297-0.635
		c-0.016-0.196,0.016-0.354,0.243-0.38c0.21-0.024,0.313,0.104,0.382,0.282c0.086,0.227,0.175,0.453,0.275,0.672
		c0.178,0.395,0.491,0.631,0.915,0.793c0.059-0.256-0.113-0.392-0.184-0.556c-0.161-0.392-0.026-0.724,0.367-0.877
		c0.08-0.033,0.166-0.049,0.242-0.088c0.22-0.105,0.388-0.226,0.199-0.511c-0.084-0.128-0.104-0.294,0.061-0.42
		c0.111,0.023,0.168,0.115,0.241,0.183c0.113,0.109,0.248,0.13,0.382,0.069c0.166-0.073,0.202-0.227,0.187-0.395
		c-0.009-0.084-0.031-0.168-0.056-0.252c-0.873-3.187-4.594-4.818-7.55-3.313c-0.095,0.048-0.229,0.063-0.234,0.218
		c0.387,0.013,0.767-0.082,1.146-0.01c0.16,0.033,0.34,0.077,0.328,0.265c-0.015,0.285,0.121,0.455,0.336,0.596
		c0.096,0.063,0.165,0.185,0.052,0.252c-0.313,0.188-0.585,0.48-1.016,0.458c0.035-0.336,0.435-0.282,0.521-0.527
		c-0.099-0.111-0.212-0.09-0.302-0.069c-0.456,0.111-0.914,0.183-1.384,0.221C9.762,3.241,9.568,3.34,9.418,3.493
		C9.34,3.569,9.298,3.661,9.376,3.771c0.187,0.256,0.791,0.34,1.034,0.135c0.117-0.1,0.197-0.252,0.369-0.267
		c0.045-0.003,0.1,0.029,0.137,0.063c0.036,0.033,0.051,0.088,0,0.128c-0.285,0.233-0.505,0.577-0.982,0.396
		c-0.451-0.17-0.837,0.067-1.196,0.326C8.74,5.058,8.419,4.95,8.108,4.9c-0.093-0.019-0.198,0.043-0.3,0.072
		C7.746,5.167,7.69,5.364,7.936,5.482l0.038-0.017l0.041,0.008c0.284,0.015,0.553-0.069,0.794-0.197
		c0.294-0.161,0.522-0.113,0.729,0.131c0.046,0.019,0.091,0.029,0.141,0.031C9.9,5.454,10.09,5.557,10.324,5.673
		C9.957,6.023,9.623,5.83,9.302,5.719c-0.42-0.145-0.823-0.378-1.282-0.15c-0.387,0.279-0.538,0.67-0.5,1.13
		C7.565,7.251,7.625,7.801,7.812,8.33c0.168,0.477,0.214,0.5,0.655,0.29c0.347-0.164,0.458-0.168,0.667,0.121
		c0.2,0.278,0.613,0.423,0.58,0.858c0.249,0.188,0.146,0.476,0.197,0.719c0.082,0.373,0.229,0.455,0.592,0.328
		c0.303-0.104,0.484-0.321,0.597-0.609C11.16,9.877,11.183,9.684,11.288,9.559z M16.813,7.828c0.061,0.16,0.228,0.177,0.382,0.152
		c0.074-0.01,0.114-0.063,0.104-0.162c-0.046-0.125-0.155-0.191-0.303-0.182C16.888,7.646,16.774,7.727,16.813,7.828z M16.883,7.436
		c0.051-0.004,0.086-0.05,0.091-0.109c-0.038-0.126-0.128-0.2-0.259-0.213c-0.022-0.004-0.077,0.076-0.073,0.113
		C16.652,7.364,16.738,7.443,16.883,7.436z M14.129,7.143c-0.113-0.026-0.223,0.002-0.25,0.113
		c-0.042,0.167,0.103,0.192,0.216,0.212c0.095,0.017,0.206,0.035,0.261-0.089C14.341,7.24,14.253,7.172,14.129,7.143z M12.223,8.098
		c-0.034-0.021-0.101-0.015-0.143,0.004c-0.118,0.051-0.189,0.146-0.224,0.268c-0.089,0.309-0.154,0.619-0.071,1.027
		c0.279-0.401,0.32-0.815,0.491-1.174C12.292,8.193,12.256,8.116,12.223,8.098z M16.108,10.925c-0.44-0.225-0.813-0.146-1.069,0.113
		c-0.379,0.385-0.744,0.323-1.175,0.155c-0.467-0.182-0.95-0.327-1.463-0.283c-0.372,0.029-0.715,0.141-0.95,0.456
		c-0.191,0.258-0.146,0.396,0.17,0.477c0.712,0.179,1.436,0.22,2.157,0.093C14.604,11.786,15.371,11.492,16.108,10.925z
		 M17.83,8.177c-0.06-0.104-0.134-0.174-0.244-0.094c-0.396,0.281-0.864,0.336-1.313,0.457c-0.872,0.235-1.149,0.789-0.759,1.715
		c0.04,0.095,0.129,0.173,0.188,0.112c0.261-0.26,0.517,0.041,0.777-0.021c0.16,0.092,0.281,0.031,0.401-0.101
		c0.427-0.466,0.75-0.995,0.999-1.57C17.952,8.502,17.918,8.337,17.83,8.177z M17.853,5.918c0.155,0.416-0.157,0.643-0.103,0.945
		c0.053,0.3,0.112,0.598,0.427,0.786C18.38,6.497,18.349,6.274,17.853,5.918z M7.936,5.481c-0.183-0.135-0.188-0.314-0.128-0.51
		C7.644,5.299,7.66,5.359,7.936,5.481z M9.584,5.387c0.021,0.093,0.042,0.214,0.17,0.157c0.048-0.021-0.013-0.115-0.065-0.157
		C9.654,5.387,9.619,5.387,9.584,5.387z"/>
</g>
</svg>
