<?xml version="1.0" encoding="utf-8"?>
<!-- Generator: Adobe Illustrator 16.0.0, SVG Export Plug-In . SVG Version: 6.00 Build 0)  -->
<!DOCTYPE svg PUBLIC "-//W3C//DTD SVG 1.1//EN" "http://www.w3.org/Graphics/SVG/1.1/DTD/svg11.dtd">
<svg version="1.1" id="Layer_1" xmlns="http://www.w3.org/2000/svg" xmlns:xlink="http://www.w3.org/1999/xlink" x="0px" y="0px"
	 width="13.18px" height="13.2px" viewBox="0 0 13.18 13.2" enable-background="new 0 0 13.18 13.2" xml:space="preserve">
<g id="Layer_2" display="none">
	
		<rect x="-183.732" y="-88.334" display="inline" fill="#421212" stroke="#000000" stroke-width="1.5602" stroke-miterlimit="10" width="675" height="160.667"/>
</g>
<g id="Layer_1_1_">
	<rect x="-171.232" y="-83.709" display="none" fill="#F36D25" width="655.5" height="106.75"/>
	<path fill="#F36D25" d="M13.178,7.776c0.005-0.281-0.089-0.441-0.332-0.576c-0.874-0.488-1.732-1.001-2.605-1.489
		c-0.195-0.11-0.261-0.237-0.258-0.458C9.995,4.251,9.981,3.25,9.993,2.247c0.003-0.262-0.083-0.418-0.318-0.55
		c-0.918-0.513-1.829-1.04-2.733-1.578C6.694-0.027,6.502-0.048,6.242,0.108c-0.912,0.55-1.836,1.078-2.766,1.6
		C3.243,1.839,3.162,1.996,3.166,2.263C3.181,3.25,3.161,4.24,3.179,5.229c0.004,0.258-0.083,0.387-0.303,0.508
		C2.014,6.219,1.167,6.728,0.305,7.209C0.09,7.333-0.008,7.471,0.001,7.726c0.02,0.552,0.006,1.104,0.007,1.657
		c0,0.525,0.015,1.054-0.007,1.58c-0.011,0.27,0.086,0.416,0.316,0.547c0.919,0.513,1.83,1.037,2.733,1.576
		c0.253,0.15,0.453,0.151,0.707,0c0.836-0.502,1.688-0.974,2.527-1.474c0.213-0.127,0.368-0.139,0.589-0.006
		c0.835,0.503,1.688,0.974,2.525,1.474c0.25,0.148,0.45,0.164,0.707,0.01c0.903-0.539,1.815-1.063,2.732-1.577
		c0.242-0.136,0.343-0.291,0.338-0.577C13.162,9.883,13.162,8.829,13.178,7.776z M3.167,12.577c0,0.022-0.019,0.043-0.026,0.064
		c-0.072,0.033-0.122-0.018-0.176-0.047c-0.767-0.441-1.531-0.883-2.299-1.323C0.542,11.2,0.438,11.137,0.44,10.956
		c0.01-0.961,0.003-1.924,0.003-2.873c0.123-0.074,0.189,0.015,0.26,0.055c0.746,0.426,1.486,0.857,2.231,1.285
		c0.142,0.08,0.244,0.149,0.242,0.345C3.165,10.704,3.169,11.641,3.167,12.577z M3.636,2.493C4.477,2.976,5.281,3.438,6.137,3.93
		C5.298,4.415,4.494,4.879,3.636,5.376C3.636,4.384,3.636,3.474,3.636,2.493z M3.655,12.663c0-0.925,0-1.836,0-2.82
		c0.839,0.482,1.623,0.937,2.411,1.391C5.894,11.434,4.165,12.459,3.655,12.663z M6.336,10.87c-0.835-0.482-1.627-0.938-2.484-1.433
		C4.717,8.939,5.51,8.483,6.336,8.006C6.336,8.974,6.336,9.889,6.336,10.87z M3.855,5.767c0.834-0.481,1.629-0.94,2.487-1.437
		C6.377,5.307,6.344,6.229,6.36,7.215C5.484,6.709,4.688,6.248,3.855,5.767z M9.53,2.491c0,0.988,0,1.904,0,2.881
		c-0.842-0.485-1.645-0.948-2.496-1.44C7.886,3.439,8.688,2.978,9.53,2.491z M6.812,7.209c0-0.977,0-1.896,0-2.875
		c0.842,0.461,1.647,0.939,2.497,1.437C8.463,6.258,7.656,6.724,6.812,7.209z M9.242,8.894c-0.698-0.452-1.434-0.845-2.207-1.29
		C7.747,7.19,8.4,6.81,9.054,6.434C9.286,6.3,9.522,6.072,9.759,6.07c0.234,0,0.473,0.227,0.705,0.36
		c0.565,0.324,1.132,0.653,1.696,0.98c0.099,0.057,0.212,0.094,0.294,0.213C11.722,8.047,10.979,8.447,10.27,8.9
		C9.896,9.142,9.613,9.131,9.242,8.894z M12.542,11.252c-0.825,0.465-1.646,0.939-2.471,1.41c-0.008,0.006-0.023-0.006-0.039-0.01
		c-0.084-0.068-0.041-0.165-0.042-0.246c-0.004-0.848,0.005-1.693-0.008-2.541c-0.003-0.22,0.063-0.344,0.263-0.453
		c0.805-0.447,1.598-0.916,2.471-1.422c0,0.344,0,0.608,0,0.875c0,0.68-0.003,1.359,0.003,2.039
		C12.72,11.06,12.688,11.168,12.542,11.252z"/>
</g>
</svg>
