<?xml version="1.0" encoding="utf-8"?>
<!-- Generator: Adobe Illustrator 16.0.0, SVG Export Plug-In . SVG Version: 6.00 Build 0)  -->
<!DOCTYPE svg PUBLIC "-//W3C//DTD SVG 1.1//EN" "http://www.w3.org/Graphics/SVG/1.1/DTD/svg11.dtd">
<svg version="1.1" id="Layer_1" xmlns="http://www.w3.org/2000/svg" xmlns:xlink="http://www.w3.org/1999/xlink" x="0px" y="0px"
	 width="25.889px" height="13.2px" viewBox="0 0 25.889 13.2" enable-background="new 0 0 25.889 13.2" xml:space="preserve">
<g id="Layer_2" display="none">
	
		<rect x="-238.177" y="-88.096" display="inline" fill="#421212" stroke="#000000" stroke-width="1.5602" stroke-miterlimit="10" width="675" height="160.666"/>
</g>
<g id="Layer_1_1_">
	<rect x="-225.677" y="-83.471" display="none" fill="#CF8D2A" width="655.5" height="106.75"/>
	<path fill="#CF8D2A" d="M8.4,10.372C8.15,10.14,7.932,9.956,7.736,9.75C7.532,9.538,7.559,9.409,7.814,9.286
		C7.888,9.249,7.968,9.23,8.047,9.209c1.078-0.301,2.159-0.604,3.237-0.899c0.507-0.14,0.628-0.058,0.554,0.431
		c-0.176,1.17-0.367,2.336-0.58,3.5c-0.078,0.438-0.208,0.463-0.56,0.191c-0.226-0.172-0.396-0.514-0.664-0.501
		c-0.251,0.01-0.493,0.25-0.743,0.384c-3.391,1.84-8.324,0.311-9.146-4.213c-0.256-1.396-0.185-2.811,0.302-4.168
		C1.2,1.828,2.726,0.587,4.885,0.152c2.451-0.489,4.553,0.216,6.29,2.012c1.161,1.201,2.015,2.614,2.768,4.093
		C14.34,7.04,14.756,7.812,15.29,8.51c0.921,1.209,2.086,2.064,3.568,2.439c2.364,0.602,4.316-0.604,4.814-2.977
		c0.192-0.927,0.175-1.864-0.026-2.795c-0.41-1.904-1.848-2.886-3.655-3.071c-1.432-0.144-2.636,0.392-3.676,1.345
		c-0.424,0.388-0.796,0.819-1.146,1.272c-0.384,0.496-0.475,0.484-0.798-0.077c-0.185-0.317-0.354-0.645-0.556-0.951
		c-0.159-0.24-0.161-0.435,0.025-0.66c1.619-1.953,3.582-3.221,6.233-3.009c3.239,0.26,5.44,2.375,5.762,5.613
		c0.113,1.134,0.047,2.241-0.263,3.332c-0.852,2.993-3.741,4.726-6.797,4.103c-2.116-0.435-3.786-1.558-5.103-3.242
		C13.095,9.09,12.62,8.28,12.198,7.44c-0.635-1.261-1.329-2.484-2.269-3.552C9.182,3.041,8.291,2.45,7.169,2.187
		C4.697,1.602,2.415,3.19,2.17,5.723C2.12,6.228,2.122,6.743,2.143,7.25c0.084,1.892,1.523,3.439,3.403,3.679
		C6.72,11.081,7.578,10.915,8.4,10.372z"/>
</g>
</svg>
