<?xml version="1.0" encoding="utf-8"?>
<!-- Generator: Adobe Illustrator 16.0.0, SVG Export Plug-In . SVG Version: 6.00 Build 0)  -->
<!DOCTYPE svg PUBLIC "-//W3C//DTD SVG 1.1//EN" "http://www.w3.org/Graphics/SVG/1.1/DTD/svg11.dtd">
<svg version="1.1" id="Layer_1" xmlns="http://www.w3.org/2000/svg" xmlns:xlink="http://www.w3.org/1999/xlink" x="0px" y="0px"
	 width="14.09px" height="13.199px" viewBox="0 0 14.09 13.199" enable-background="new 0 0 14.09 13.199" xml:space="preserve">
<g id="Layer_2" display="none">
	
		<rect x="-331.628" y="-87.957" display="inline" fill="#421212" stroke="#000000" stroke-width="1.5602" stroke-miterlimit="10" width="675" height="160.666"/>
</g>
<g id="Layer_1_1_">
	<rect x="-319.128" y="-83.332" display="none" fill="#02558B" width="655.5" height="106.75"/>
	<path fill="#02558B" d="M11.706,13.197c-0.388,0-0.773,0.005-1.162-0.002c-0.297-0.004-0.465-0.141-0.465-0.362
		c-0.002-0.217,0.168-0.369,0.463-0.373c0.789-0.008,1.578-0.003,2.367-0.003c0.045,0,0.09,0.003,0.135,0.012
		c0.201,0.034,0.316,0.155,0.326,0.361c0.008,0.202-0.135,0.355-0.367,0.361C12.57,13.206,12.138,13.195,11.706,13.197
		L11.706,13.197z M11.749,8.501c-0.432,0-0.862-0.008-1.295,0.004c-0.233,0.007-0.387,0.159-0.375,0.354
		c0.012,0.201,0.131,0.326,0.332,0.363c0.043,0.008,0.088,0.008,0.133,0.008c0.789,0.002,1.578,0.006,2.369-0.002
		c0.301-0.002,0.457-0.141,0.457-0.369c0.002-0.23-0.146-0.354-0.459-0.358C12.524,8.495,12.138,8.5,11.749,8.501L11.749,8.501z
		 M0.01,10.826c0,0.134-0.018,0.271,0.004,0.398c0.04,0.221,0.17,0.291,0.431,0.282c0.21-0.006,0.346-0.097,0.356-0.312
		c0.012-0.236,0.019-0.475-0.001-0.711c-0.018-0.232-0.154-0.336-0.386-0.34c-0.227-0.002-0.372,0.105-0.405,0.324
		c-0.018,0.116-0.003,0.236-0.003,0.355C0.007,10.826,0.01,10.826,0.01,10.826z M13.958,0.004c-0.474-0.055-0.944,0.44-0.877,0.917
		c0.016,0.113,0.066,0.146,0.176,0.146c0.457-0.006,0.816-0.359,0.834-0.83C14.096,0.059,14.073,0.017,13.958,0.004z M11.859,1.576
		c-0.037-0.242-0.325-0.596-0.481-0.588c-0.148,0.006-0.303,0.443-0.246,0.706c0.015,0.057,0.035,0.114,0.064,0.164
		c0.104,0.181,0.235,0.423,0.439,0.381c0.217-0.045,0.207-0.326,0.238-0.531C11.87,1.665,11.866,1.62,11.859,1.576z M12.319,1.415
		c0.063,0.023,0.109,0.02,0.157-0.028c0.161-0.158,0.215-0.552,0.106-0.798c-0.104-0.229-0.369-0.473-0.471-0.407
		c-0.195,0.124-0.193,0.347-0.22,0.53C11.896,1.002,12.101,1.327,12.319,1.415z M12.279,2.479c-0.159,0.103-0.149,0.187-0.024,0.31
		c0.334,0.333,0.685,0.322,1.082-0.045C12.991,2.299,12.685,2.226,12.279,2.479z M14.027,1.798c0.002-0.152-0.37-0.326-0.636-0.297
		c-0.23,0.025-0.561,0.262-0.542,0.391c0.017,0.119,0.345,0.275,0.569,0.273C13.661,2.162,14.026,1.941,14.027,1.798z M12.586,1.81
		c0.117-0.114,0.223-0.241,0.324-0.369c0.051-0.064,0.148-0.146,0.06-0.228c-0.104-0.095-0.146,0.037-0.198,0.095
		c-0.204,0.216-0.408,0.433-0.605,0.655c-0.196,0.22-0.414,0.427-0.5,0.725c0.033,0.038,0.065,0.075,0.1,0.113
		C12,2.439,12.278,2.112,12.586,1.81z M11.607,4.629c0.021,0.073,0.071,0.144,0.159,0.104c0.061-0.025,0.044-0.094,0.029-0.154
		c-0.051-0.216-0.092-0.432-0.141-0.648c-0.037-0.177,0.041-0.278,0.2-0.336c-0.164-0.033-0.287-0.006-0.29,0.198
		c-0.001,0.086,0.001,0.173-0.077,0.233C11.463,4.24,11.557,4.431,11.607,4.629z M1.605,7.641c0.004,0.019,0.007,0.034,0.01,0.053
		c0.09,0.029,0.18,0.062,0.27,0.093C1.985,7.677,2.13,7.757,2.241,7.7C2.037,7.604,1.823,7.609,1.605,7.641z M1.396,7.568
		c0.049,0.089,0.136,0.104,0.22,0.125c-0.002-0.02-0.006-0.035-0.01-0.053C1.56,7.549,1.498,7.506,1.396,7.568z M13.107,9.868
		c0.004,0.673,0.005,1.346-0.001,2.019c-0.003,0.305-0.031,0.334-0.336,0.336c-0.703,0.01-1.406,0.01-2.109,0
		c-0.285-0.002-0.316-0.052-0.334-0.352c-0.031-0.537-0.029-0.543-0.572-0.616c-0.637-0.087-1.273-0.112-1.92-0.084
		c-1.165,0.054-2.333,0.045-3.498,0.068c-0.986,0.02-1.973,0.051-2.959,0.069c-0.374,0.006-0.381-0.002-0.379-0.357
		c0.003-0.604-0.075-0.581,0.539-0.561c1.091,0.037,2.184-0.01,3.272,0.082c0.089,0.008,0.179-0.004,0.268,0
		c0.16,0.01,0.209-0.076,0.207-0.22C5.283,9.971,5.281,9.686,5.287,9.4c0.004-0.162-0.048-0.236-0.225-0.252
		C4.192,9.075,3.419,8.736,2.7,8.255c-0.261-0.174-0.542-0.315-0.815-0.47C1.96,7.573,2.113,7.688,2.241,7.7
		c0.575,0.03,1.094-0.117,1.554-0.466C4.127,6.984,4.489,6.78,4.93,6.59C3.753,6.345,3.169,5.585,2.87,4.562
		C2.725,4.061,2.63,3.545,2.491,3.041C2.352,2.533,2.158,2.05,1.59,1.715c0.859-0.099,1.592-0.01,2.297,0.319
		C4.52,2.329,5.05,2.76,5.538,3.251c0.417,0.42,0.884,0.753,1.479,0.882c0.692,0.152,1.261-0.093,1.78-0.518
		c0.23-0.188,0.447-0.395,0.677-0.588c0.114-0.096,0.237-0.183,0.362-0.265c0.629-0.415,1.05-0.36,1.453,0.151
		c0.035,0.046,0.084,0.081,0.129,0.122c0.185-0.05,0.131-0.259,0.246-0.349c0.09-0.011,0.139,0.014,0.101,0.113
		c-0.114,0.281-0.14,0.537,0.192,0.695c0.061,0.029,0.027,0.071-0.015,0.092c-0.024,0.012-0.058,0.005-0.087,0.006
		c-0.145,0.031-0.273,0.072-0.249,0.269c0.011,0.075,0.021,0.181-0.118,0.163c-0.064-0.379-0.064-0.379-0.395-0.274
		c-0.648,0.206-0.983,0.67-1.037,1.464c-0.02,0.254-0.004,0.508-0.008,0.763c-0.016,1.148-0.522,2.001-1.53,2.552
		C8.029,8.798,7.511,8.975,6.96,9.073C6.556,9.145,6.545,9.152,6.558,9.547c0.01,0.309-0.139,0.699,0.079,0.901
		c0.195,0.18,0.572,0.042,0.87,0.057c0.835,0.043,1.669,0.037,2.5-0.091c0.308-0.047,0.33-0.037,0.314-0.35
		c-0.027-0.67,0.111-0.615,0.633-0.613c0.584,0.002,1.166-0.006,1.75,0.003C13.084,9.459,13.105,9.482,13.107,9.868z M6.175,9.839
		c0-0.147-0.005-0.297,0.001-0.444C6.18,9.249,6.129,9.173,5.969,9.182C5.814,9.189,5.665,9.188,5.668,9.408
		c0.004,0.281,0.007,0.563,0.002,0.845c-0.004,0.207,0.115,0.237,0.287,0.238c0.185,0.002,0.224-0.097,0.219-0.253
		C6.17,10.105,6.175,9.973,6.175,9.839z"/>
</g>
</svg>
