<?xml version="1.0" encoding="utf-8"?>
<!-- Generator: Adobe Illustrator 16.0.0, SVG Export Plug-In . SVG Version: 6.00 Build 0)  -->
<!DOCTYPE svg PUBLIC "-//W3C//DTD SVG 1.1//EN" "http://www.w3.org/Graphics/SVG/1.1/DTD/svg11.dtd">
<svg version="1.1" id="Layer_1" xmlns="http://www.w3.org/2000/svg" xmlns:xlink="http://www.w3.org/1999/xlink" x="0px" y="0px"
	 width="16px" height="13.2px" viewBox="0 0 16 13.2" enable-background="new 0 0 16 13.2" xml:space="preserve">
<g id="Layer_2" display="none">
	
		<rect x="-51.209" y="-88.167" display="inline" fill="#421212" stroke="#000000" stroke-width="1.5602" stroke-miterlimit="10" width="675" height="160.666"/>
</g>
<g id="Layer_1_1_">
	<rect x="-38.709" y="-83.542" display="none" fill="#D3A029" width="655.5" height="106.75"/>
	<path fill="#D3A029" d="M7.977,6.619c2.346,0,4.693,0,7.041,0c0.07,0,0.141,0,0.211,0c0.438,0.004,0.5,0.071,0.408,0.497
		c-0.312,1.422-1.011,2.627-2.063,3.629c-0.761,0.719-1.636,1.256-2.61,1.621c-0.227,0.084-0.35,0.17-0.338,0.44
		c0.012,0.274-0.076,0.34-0.366,0.341c-1.454,0.004-2.912,0.004-4.367,0c-0.308-0.001-0.352-0.031-0.356-0.337
		c-0.003-0.233-0.114-0.304-0.31-0.372c-1.208-0.425-2.262-1.092-3.135-2.031C1.218,9.465,0.621,8.375,0.37,7.106
		C0.278,6.648,0.301,6.621,0.768,6.62C3.17,6.619,5.573,6.619,7.977,6.619z M8.784,6.022C9.113,6.018,9.134,6,9.184,5.675
		c0.008-0.055,0.006-0.112,0.01-0.167C9.229,4.77,8.93,4.161,8.45,3.633C7.941,3.068,7.82,2.428,7.999,1.706
		c0.089-0.359,0.253-0.684,0.43-1.007c0.189-0.35-0.004-0.653-0.403-0.646c-0.181,0.002-0.333,0.065-0.432,0.22
		c-0.732,1.143-1.038,2.663,0.079,3.86c0.487,0.523,0.671,1.131,0.429,1.89C8.364,6.023,8.573,6.025,8.784,6.022z M5.495,6.022
		c0.716,0.007,0.78-0.065,0.724-0.796c-0.006-0.07-0.021-0.139-0.032-0.208c-0.09-0.564-0.383-1.025-0.756-1.44
		C4.965,3.063,4.867,2.457,4.998,1.804C5.08,1.399,5.256,1.03,5.463,0.676C5.636,0.382,5.485,0.104,5.15,0.059
		C4.923,0.026,4.736,0.095,4.602,0.295c-0.19,0.282-0.335,0.588-0.444,0.909C3.809,2.236,3.882,3.21,4.634,4.055
		c0.501,0.564,0.758,1.179,0.507,1.929C5.269,6.038,5.386,6.021,5.495,6.022z M11.695,6.021c0.41,0.003,0.428-0.014,0.467-0.409
		c0.011-0.112,0.011-0.228,0.006-0.339c-0.033-0.651-0.329-1.188-0.756-1.66c-0.485-0.537-0.607-1.153-0.448-1.847
		c0.086-0.376,0.245-0.717,0.433-1.053c0.207-0.37,0.006-0.677-0.418-0.663c-0.225,0.008-0.36,0.135-0.471,0.312
		c-0.227,0.376-0.4,0.776-0.504,1.205C9.785,2.49,9.938,3.335,10.585,4.054c0.508,0.562,0.759,1.179,0.505,1.935
		C11.301,6.051,11.501,6.02,11.695,6.021z"/>
</g>
</svg>
