<?xml version="1.0" encoding="utf-8"?>
<!-- Generator: Adobe Illustrator 16.0.0, SVG Export Plug-In . SVG Version: 6.00 Build 0)  -->
<!DOCTYPE svg PUBLIC "-//W3C//DTD SVG 1.1//EN" "http://www.w3.org/Graphics/SVG/1.1/DTD/svg11.dtd">
<svg version="1.1" id="Layer_1" xmlns="http://www.w3.org/2000/svg" xmlns:xlink="http://www.w3.org/1999/xlink" x="0px" y="0px"
	 width="13.482px" height="13.199px" viewBox="0 0 13.482 13.199" enable-background="new 0 0 13.482 13.199" xml:space="preserve">
<g id="Layer_2" display="none">
	
		<rect x="-312.411" y="-87.917" display="inline" fill="#421212" stroke="#000000" stroke-width="1.5602" stroke-miterlimit="10" width="675" height="160.666"/>
</g>
<g id="Layer_1_1_">
	<rect x="-299.911" y="-83.292" display="none" fill="#3EB049" width="655.5" height="106.75"/>
	<path fill="#3EB049" d="M5.774,2.79c0.419,0.135,0.77,0.313,1.047,0.605c0.635,0.667,0.79,1.46,0.484,2.307
		c-0.31,0.856-0.97,1.324-1.876,1.417C5.146,7.146,4.856,7.123,4.57,7.122C3.876,7.121,3.182,7.115,2.485,7.119
		c-0.647,0.003-1.181-0.223-1.5-0.806C0.671,5.734,0.717,5.161,1.099,4.62c0.022-0.033,0.038-0.072,0.064-0.126
		c-0.455-0.33-0.71-0.771-0.682-1.349C0.516,2.515,1.01,1.909,1.63,1.837c0.305-0.036,0.396-0.156,0.468-0.423
		C2.307,0.64,2.979,0.074,3.725,0.01c0.892-0.078,1.608,0.298,1.998,1.052c0.22,0.427,0.278,0.876,0.158,1.345
		C5.851,2.524,5.815,2.641,5.774,2.79z M2.229,10.594c-0.64,0-1.279-0.003-1.919,0.004c-0.28,0.002-0.295,0.025-0.308,0.305
		c-0.003,0.055-0.001,0.108-0.001,0.162c-0.006,0.621,0.039,0.504,0.514,0.504c4.099,0.002,8.197,0.005,12.297-0.002
		c0.755,0,0.66,0.166,0.672-0.707c0.001-0.19-0.072-0.276-0.266-0.264c-0.08,0.004-0.162,0-0.244,0c-2.084,0-4.168,0-6.25-0.002
		C5.226,10.594,3.728,10.594,2.229,10.594z M0.593,12.229c-0.609,0.002-0.598-0.123-0.591,0.586c0.003,0.369,0.007,0.369,0.36,0.375
		c0.082,0.002,0.164,0,0.246,0c4.063,0,8.122,0.004,12.186,0c0.773-0.002,0.682,0.164,0.688-0.737
		c0.001-0.151-0.054-0.231-0.214-0.226c-0.096,0.004-0.19,0-0.286,0c-2.086,0-4.172,0-6.257,0
		C4.683,12.227,2.639,12.225,0.593,12.229z M8.688,5.41c-0.068,0.066-0.124,0.151-0.05,0.25c0.064,0.086,0.139,0.051,0.218,0.022
		c0.64-0.233,1.2-0.05,1.72,0.334c0.292,0.214,0.287,0.215,0.577,0.003c0.521-0.382,1.082-0.567,1.725-0.343
		c0.088,0.031,0.186,0.085,0.25-0.029c0.06-0.103-0.006-0.184-0.08-0.248C12.794,5.182,12.514,5.026,12.172,5
		c-0.395-0.031-0.762,0.056-1.086,0.274c-0.162,0.109-0.282,0.101-0.44-0.004c-0.266-0.176-0.562-0.274-0.871-0.272
		C9.344,4.979,8.988,5.128,8.688,5.41z M3.651,9.127c0.019,0.743-0.145,0.627,0.69,0.646c0.222,0.006,0.283-0.09,0.28-0.291
		C4.613,9.088,4.624,8.693,4.617,8.299c-0.012-0.756,0.14-0.652-0.717-0.667C3.697,7.628,3.643,7.718,3.649,7.902
		C3.659,8.161,3.651,8.42,3.651,8.678C3.651,8.827,3.649,8.979,3.651,9.127z M10.824,1.766C10.408,1.48,9.956,1.413,9.521,1.669
		C9.216,1.85,8.974,1.868,8.642,1.728c-0.472-0.2-0.931-0.08-1.314,0.279c-0.074,0.07-0.12,0.158-0.068,0.253
		c0.062,0.119,0.155,0.054,0.244,0.02c0.501-0.195,0.961-0.076,1.383,0.219C9.072,2.63,9.202,2.646,9.372,2.47
		c0.254-0.263,0.578-0.396,0.943-0.427c0.166-0.015,0.323,0.015,0.479,0.065c0.105,0.037,0.184-0.004,0.202-0.119
		C10.976,1.882,10.904,1.818,10.824,1.766z M10.026,0.146c-0.04,0.036-0.063,0.087-0.049,0.146c0.018,0.066,0.074,0.086,0.124,0.084
		c0.474-0.026,0.798,0.212,1.056,0.577c0.068,0.099,0.154,0.135,0.28,0.085c0.412-0.164,0.816-0.203,1.19,0.102
		c0.048,0.038,0.102,0.04,0.147,0.001c0.046-0.037,0.057-0.092,0.053-0.148c-0.004-0.087-0.062-0.148-0.11-0.212
		c-0.254-0.326-0.604-0.416-0.984-0.353c-0.214,0.035-0.356-0.006-0.504-0.162c-0.174-0.186-0.404-0.27-0.638-0.261
		C10.374,0.004,10.184,0.01,10.026,0.146z"/>
</g>
</svg>
