<?xml version="1.0" encoding="utf-8"?>
<!-- Generator: Adobe Illustrator 16.0.0, SVG Export Plug-In . SVG Version: 6.00 Build 0)  -->
<!DOCTYPE svg PUBLIC "-//W3C//DTD SVG 1.1//EN" "http://www.w3.org/Graphics/SVG/1.1/DTD/svg11.dtd">
<svg version="1.1" id="Layer_1" xmlns="http://www.w3.org/2000/svg" xmlns:xlink="http://www.w3.org/1999/xlink" x="0px" y="0px"
	 width="9.619px" height="13.2px" viewBox="0 0 9.619 13.2" enable-background="new 0 0 9.619 13.2" xml:space="preserve">
<g id="Layer_2" display="none">
	
		<rect x="-131.397" y="-88.334" display="inline" fill="#421212" stroke="#000000" stroke-width="1.5602" stroke-miterlimit="10" width="675" height="160.667"/>
</g>
<g id="Layer_1_1_">
	<rect x="-118.897" y="-83.709" display="none" fill="#00AED9" width="655.5" height="106.75"/>
	<path fill="#00AED9" d="M9.328,0.002c-0.052-0.002-0.104,0-0.154,0c-2.896,0-5.794,0-8.691,0c-0.078,0-0.155-0.004-0.232,0.001
		c-0.23,0.017-0.274,0.066-0.24,0.285C0.044,0.503,0.09,0.717,0.125,0.933C0.393,2.58,0.656,4.228,0.927,5.875
		c0.195,1.19,0.4,2.379,0.599,3.57C1.58,9.77,1.608,9.805,1.945,9.809c0.464,0.004,0.927,0.006,1.392-0.002
		C3.514,9.806,3.6,9.846,3.635,10.055c0.059,0.355,0.023,0.721,0.103,1.074c0.032,0.144-0.058,0.172-0.176,0.181
		c-0.181,0.017-0.374-0.048-0.588,0.075c0.569,0.568,1.113,1.115,1.659,1.658c0.21,0.207,0.216,0.209,0.421,0.006
		c0.493-0.489,0.985-0.982,1.474-1.477c0.06-0.06,0.152-0.103,0.135-0.242c-0.166-0.045-0.344-0.012-0.518-0.021
		c-0.114-0.005-0.227-0.031-0.195-0.172c0.074-0.354,0.041-0.717,0.096-1.074c0.028-0.182,0.104-0.262,0.301-0.258
		C6.834,9.819,7.323,9.813,7.813,9.81c0.311-0.004,0.319-0.017,0.365-0.315c0.186-1.193,0.365-2.387,0.551-3.579
		c0.291-1.866,0.582-3.73,0.875-5.595C9.646,0.055,9.61,0.015,9.328,0.002z M6.194,7.374C5.938,7.801,5.562,8.04,5.059,8.057
		C4.816,8.064,4.568,8.09,4.33,8.021C3.567,7.792,3.112,7.098,3.339,6.122c0.041-0.176,0.11-0.344,0.207-0.497
		c0.414-0.648,0.83-1.296,1.285-2.004c0.252,0.383,0.466,0.7,0.677,1.021c0.203,0.31,0.421,0.615,0.603,0.939
		C6.431,6.16,6.56,6.76,6.194,7.374z M8.959,1.849c-0.021,0.136-0.095,0.17-0.213,0.156C8.399,1.965,8.09,2.083,7.774,2.206
		c-0.455,0.178-0.92,0.322-1.416,0.356C5.659,2.608,5.008,2.431,4.37,2.17C3.903,1.98,3.438,1.797,2.916,1.846
		c-0.168,0.014-0.33,0.035-0.487,0.1C2.01,2.12,1.574,2.23,1.129,2.304c-0.28,0.047-0.328,0.011-0.388-0.271
		c-0.096-0.454-0.18-0.907-0.274-1.359C0.436,0.521,0.48,0.451,0.636,0.456c0.09,0.002,0.181-0.002,0.271-0.002
		c1.301,0,2.603,0,3.903,0s2.603,0,3.903,0c0.103,0,0.206,0.002,0.31,0.004C9.14,0.459,9.185,0.526,9.167,0.634
		C9.099,1.039,9.022,1.442,8.959,1.849z"/>
</g>
</svg>
