<?xml version="1.0" encoding="utf-8"?>
<!-- Generator: Adobe Illustrator 16.0.0, SVG Export Plug-In . SVG Version: 6.00 Build 0)  -->
<!DOCTYPE svg PUBLIC "-//W3C//DTD SVG 1.1//EN" "http://www.w3.org/Graphics/SVG/1.1/DTD/svg11.dtd">
<svg version="1.1" id="Layer_1" xmlns="http://www.w3.org/2000/svg" xmlns:xlink="http://www.w3.org/1999/xlink" x="0px" y="0px"
	 width="13.1px" height="13.2px" viewBox="0 0 13.1 13.2" enable-background="new 0 0 13.1 13.2" xml:space="preserve">
<g id="Layer_2" display="none">
	
		<rect x="-145.564" y="-88.334" display="inline" fill="#421212" stroke="#000000" stroke-width="1.5602" stroke-miterlimit="10" width="675" height="160.667"/>
</g>
<g id="Layer_1_1_">
	<rect x="-133.064" y="-83.709" display="none" fill="#FDB713" width="655.5" height="106.75"/>
	<path fill="#FDB713" d="M6.218,1.136c0-0.243-0.006-0.486,0.002-0.728C6.227,0.164,6.354,0.01,6.535,0.001
		c0.181-0.009,0.342,0.149,0.348,0.38c0.01,0.496,0.002,0.995,0.002,1.493c0,0.025,0,0.051-0.006,0.075
		c-0.038,0.195-0.16,0.306-0.336,0.303C6.37,2.25,6.235,2.137,6.225,1.939C6.208,1.672,6.221,1.403,6.221,1.136H6.218z M6.22,12.804
		c0.007,0.254,0.129,0.394,0.324,0.396c0.196,0.002,0.333-0.135,0.339-0.386c0.01-0.489,0.01-0.978,0-1.466
		c-0.004-0.239-0.148-0.398-0.328-0.403c-0.188-0.006-0.329,0.169-0.336,0.433c-0.006,0.23-0.001,0.463-0.001,0.693
		C6.218,12.315,6.212,12.56,6.22,12.804z M3.692,12.239c0.278-0.486,0.561-0.971,0.83-1.464c0.087-0.157,0.016-0.298-0.129-0.394
		c-0.155-0.104-0.295-0.047-0.41,0.074c-0.051,0.053-0.083,0.127-0.121,0.192c-0.21,0.364-0.419,0.729-0.626,1.097
		c-0.044,0.076-0.095,0.155-0.114,0.238c-0.048,0.208,0.104,0.393,0.313,0.391C3.534,12.36,3.636,12.336,3.692,12.239z M2.656,4.009
		c-0.469-0.268-0.938-0.533-1.405-0.8C1.087,3.115,0.95,3.168,0.844,3.301c-0.1,0.124-0.061,0.339,0.069,0.45
		c0.02,0.015,0.045,0.025,0.065,0.038C1.426,4.044,1.867,4.305,2.318,4.55c0.245,0.132,0.494-0.005,0.5-0.254
		C2.819,4.168,2.765,4.071,2.656,4.009z M11.805,3.219c-0.451,0.244-0.895,0.503-1.336,0.766c-0.185,0.109-0.239,0.301-0.154,0.455
		c0.087,0.157,0.271,0.208,0.467,0.101c0.448-0.247,0.891-0.509,1.337-0.763c0.119-0.069,0.193-0.164,0.188-0.311
		C12.299,3.209,12.063,3.08,11.805,3.219z M10.288,8.988c0.024,0.126,0.113,0.195,0.216,0.255c0.422,0.241,0.843,0.483,1.267,0.723
		c0.056,0.031,0.116,0.058,0.178,0.066c0.138,0.021,0.265-0.02,0.325-0.148c0.063-0.133,0.063-0.275-0.057-0.389
		c-0.046-0.043-0.104-0.074-0.158-0.105c-0.398-0.229-0.8-0.457-1.198-0.688c-0.077-0.047-0.155-0.089-0.25-0.09
		C10.391,8.608,10.247,8.778,10.288,8.988z M9.954,11.883c-0.268-0.467-0.529-0.938-0.811-1.396
		c-0.104-0.174-0.282-0.201-0.432-0.109c-0.151,0.092-0.205,0.252-0.112,0.432c0.146,0.283,0.313,0.561,0.471,0.838
		c0.109,0.188,0.215,0.38,0.33,0.564c0.097,0.152,0.246,0.177,0.405,0.123c0.145-0.045,0.188-0.162,0.187-0.328
		C9.985,11.979,9.979,11.926,9.954,11.883z M9.159,2.694c0.262-0.457,0.527-0.91,0.778-1.372c0.1-0.183,0.045-0.345-0.104-0.438
		C9.69,0.795,9.498,0.823,9.398,0.989c-0.282,0.473-0.56,0.95-0.816,1.438c-0.117,0.22,0.057,0.452,0.299,0.44
		C9.008,2.865,9.098,2.801,9.159,2.694z M4.412,2.241C4.221,1.907,4.029,1.575,3.835,1.244c-0.058-0.1-0.109-0.206-0.183-0.293
		C3.563,0.843,3.439,0.81,3.306,0.864C3.156,0.926,3.101,1.045,3.109,1.203c0.007,0.096,0.06,0.17,0.104,0.246
		c0.222,0.389,0.445,0.778,0.669,1.166C3.914,2.67,3.944,2.729,3.987,2.774c0.111,0.118,0.25,0.122,0.39,0.063
		c0.119-0.05,0.156-0.16,0.162-0.229C4.536,2.438,4.471,2.339,4.412,2.241z M1.396,9.942C1.784,9.717,2.171,9.495,2.558,9.27
		C2.613,9.239,2.67,9.208,2.717,9.165c0.121-0.107,0.137-0.246,0.066-0.383C2.72,8.654,2.602,8.611,2.461,8.624
		c-0.095,0.01-0.17,0.06-0.247,0.103C1.826,8.948,1.439,9.17,1.054,9.397C0.988,9.436,0.92,9.477,0.869,9.532
		C0.771,9.635,0.773,9.767,0.827,9.889c0.052,0.119,0.161,0.152,0.199,0.154C1.22,10.045,1.308,9.995,1.396,9.942z M1.798,6.93
		C2.052,6.923,2.194,6.808,2.2,6.618c0.006-0.194-0.127-0.324-0.385-0.33c-0.499-0.01-0.998-0.01-1.497,0
		C0.086,6.292-0.041,6.417-0.048,6.597C-0.055,6.789,0.09,6.921,0.337,6.929C0.58,6.938,0.823,6.931,1.066,6.931
		C1.309,6.931,1.554,6.936,1.798,6.93z M12.739,6.93c0.259-0.007,0.401-0.119,0.408-0.308c0.007-0.194-0.128-0.328-0.381-0.334
		c-0.5-0.01-1-0.01-1.5,0c-0.239,0.006-0.361,0.123-0.367,0.307c-0.006,0.199,0.131,0.326,0.38,0.334
		c0.242,0.009,0.487,0.002,0.729,0.002C12.252,6.931,12.496,6.936,12.739,6.93z M10.347,6.651c-0.01,2.275-1.874,3.813-3.801,3.778
		C4.443,10.43,2.745,8.743,2.747,6.646C2.751,4.414,4.6,2.827,6.569,2.838C8.445,2.848,10.355,4.341,10.347,6.651z M6.283,5.63
		c0.002,0.171,0.118,0.262,0.273,0.258c0.159-0.004,0.258-0.106,0.258-0.276c0.002-0.204,0-0.409,0-0.615
		c0-0.205,0.002-0.41,0-0.615C6.813,4.213,6.713,4.106,6.559,4.1c-0.156-0.008-0.27,0.099-0.272,0.262
		C6.275,4.784,6.277,5.207,6.283,5.63z M7.163,4.786c-0.056,0.378-0.031,0.656,0.3,0.926C7.965,6.118,7.972,6.909,7.565,7.42
		c-0.396,0.5-1.109,0.635-1.663,0.314C5.106,7.276,5.02,6.181,5.751,5.594c0.162-0.131,0.233-0.25,0.212-0.445
		C5.948,5.027,5.984,4.9,5.932,4.782C5.039,5.043,4.461,5.974,4.604,6.883C4.762,7.879,5.585,8.575,6.59,8.562
		C7.563,8.547,8.37,7.82,8.503,6.84C8.622,5.942,8.03,5.02,7.163,4.786z"/>
</g>
</svg>
