<?xml version="1.0" encoding="utf-8"?>
<!-- Generator: Adobe Illustrator 16.0.0, SVG Export Plug-In . SVG Version: 6.00 Build 0)  -->
<!DOCTYPE svg PUBLIC "-//W3C//DTD SVG 1.1//EN" "http://www.w3.org/Graphics/SVG/1.1/DTD/svg11.dtd">
<svg version="1.1" id="Layer_1" xmlns="http://www.w3.org/2000/svg" xmlns:xlink="http://www.w3.org/1999/xlink" x="0px" y="0px"
	 width="16px" height="13.2px" viewBox="0 0 16 13.2" enable-background="new 0 0 16 13.2" xml:space="preserve">
<g id="Layer_2" display="none">
	
		<rect x="-78.084" y="-88.417" display="inline" fill="#421212" stroke="#000000" stroke-width="1.5602" stroke-miterlimit="10" width="675" height="160.666"/>
</g>
<g id="Layer_1_1_">
	<rect x="-65.584" y="-83.792" display="none" fill="#279B48" width="655.5" height="106.75"/>
	<path fill="#279B48" d="M11.408,1.334c-0.42,1.39-0.823,2.734-1.229,4.08c-0.73,2.431-1.463,4.862-2.195,7.293
		c-0.027,0.094-0.054,0.188-0.091,0.277C7.832,13.127,7.72,13.209,7.566,13.2c-0.174-0.011-0.286-0.109-0.317-0.283
		c-0.082-0.467-0.165-0.934-0.244-1.4C6.77,10.127,6.535,8.738,6.298,7.35c-0.004-0.023-0.03-0.044-0.062-0.087
		c-0.1,0.028-0.119,0.132-0.16,0.207C5.684,8.192,5.293,8.918,4.902,9.644c-0.04,0.073-0.077,0.147-0.118,0.222
		c-0.082,0.147-0.197,0.233-0.375,0.209c-0.18-0.025-0.26-0.141-0.283-0.313C4.081,9.444,4.027,9.127,3.982,8.811
		C3.832,7.749,3.684,6.683,3.533,5.62C3.527,5.582,3.499,5.548,3.472,5.487C3.366,5.562,3.347,5.673,3.305,5.763
		C2.999,6.438,2.687,7.108,2.403,7.792c-0.108,0.26-0.257,0.354-0.537,0.352C0.44,8.131-0.985,8.138-2.41,8.138
		c-0.07,0-0.142,0.005-0.21-0.007c-0.159-0.023-0.245-0.127-0.264-0.279c-0.021-0.156,0.049-0.268,0.19-0.337
		C-2.559,7.45-2.42,7.474-2.281,7.474c1.244-0.002,2.488-0.011,3.732,0.004c0.259,0.002,0.396-0.073,0.5-0.317
		C2.362,6.197,2.794,5.245,3.22,4.287c0.034-0.076,0.065-0.154,0.102-0.23C3.396,3.883,3.527,3.79,3.718,3.822
		C3.893,3.852,3.969,3.97,3.99,4.145c0.042,0.331,0.102,0.661,0.148,0.993c0.148,1.049,0.293,2.1,0.442,3.149
		C4.593,8.381,4.625,8.475,4.656,8.6c0.131-0.126,0.182-0.27,0.251-0.396c0.36-0.664,0.718-1.326,1.078-1.99
		c0.046-0.086,0.091-0.172,0.141-0.257c0.079-0.136,0.201-0.19,0.354-0.164C6.638,5.82,6.722,5.925,6.75,6.076
		c0.08,0.452,0.16,0.906,0.239,1.359c0.203,1.194,0.406,2.392,0.61,3.588c0.013,0.069,0.03,0.138,0.118,0.21
		c0.18-0.592,0.358-1.167,0.532-1.744c0.903-3.007,1.806-6.013,2.708-9.019c0.009-0.026,0.021-0.052,0.029-0.078
		c0.051-0.177,0.098-0.36,0.322-0.389c0.248-0.032,0.338,0.146,0.424,0.329c0.541,1.118,1.082,2.235,1.621,3.354
		c0.041,0.088,0.082,0.18,0.103,0.272c0.035,0.176-0.05,0.3-0.208,0.368c-0.15,0.065-0.277,0.007-0.372-0.108
		c-0.062-0.072-0.097-0.168-0.14-0.257c-0.364-0.754-0.729-1.507-1.094-2.261C11.59,1.59,11.557,1.467,11.408,1.334z M15.67,7.879
		c0.438-0.463,0.422-1.267,0.057-1.795c-0.406-0.586-1.061-0.707-1.639-0.297c-0.17,0.121-0.326,0.259-0.496,0.393
		c-0.162-0.138-0.313-0.281-0.48-0.401c-0.504-0.362-1.088-0.299-1.506,0.152c-0.531,0.571-0.539,1.473-0.002,2.057
		c0.293,0.318,0.612,0.612,0.916,0.923c0.348,0.357,0.689,0.723,1.01,1.057C14.275,9.243,15.002,8.59,15.67,7.879z"/>
</g>
</svg>
