<?xml version="1.0" encoding="utf-8"?>
<!-- Generator: Adobe Illustrator 16.0.0, SVG Export Plug-In . SVG Version: 6.00 Build 0)  -->
<!DOCTYPE svg PUBLIC "-//W3C//DTD SVG 1.1//EN" "http://www.w3.org/Graphics/SVG/1.1/DTD/svg11.dtd">
<svg version="1.1" id="Layer_1" xmlns="http://www.w3.org/2000/svg" xmlns:xlink="http://www.w3.org/1999/xlink" x="0px" y="0px"
	 width="9.775px" height="13.2px" viewBox="0 0 9.775 13.2" enable-background="new 0 0 9.775 13.2" xml:space="preserve">
<g id="Layer_2" display="none">
	
		<rect x="-118.96" y="-88.584" display="inline" fill="#421212" stroke="#000000" stroke-width="1.5602" stroke-miterlimit="10" width="675" height="160.667"/>
</g>
<g id="Layer_1_1_">
	<rect x="-106.46" y="-83.959" display="none" fill="#EF402B" width="655.5" height="106.75"/>
	<path fill="#EF402B" d="M9.772,0.279c0-0.271-0.004-0.271-0.287-0.275C9.313,0.001,9.142,0,8.97,0
		C8.268,0.001,7.566-0.002,6.866,0.004C6.606,0.006,6.604,0.014,6.6,0.277c-0.004,0.184-0.004,0.369,0,0.554
		c0.006,0.261,0.012,0.271,0.268,0.273C7.161,1.11,7.454,1.106,7.746,1.106c0.013,0.025,0.028,0.052,0.041,0.077
		C7.432,1.539,7.079,1.896,6.724,2.25C6.533,2.438,6.53,2.435,6.302,2.287C5.421,1.716,4.468,1.486,3.421,1.646
		c-1.814,0.276-3.257,1.8-3.405,3.611c-0.156,1.908,0.988,3.65,2.771,4.231c0.237,0.076,0.582,0.019,0.69,0.244
		c0.101,0.211,0.023,0.509,0.025,0.767c0,0.037-0.004,0.074,0,0.109c0.017,0.168-0.072,0.208-0.224,0.204
		c-0.271-0.008-0.542,0.004-0.813-0.002c-0.15-0.004-0.227,0.043-0.223,0.209c0.009,0.258,0.006,0.519,0.001,0.774
		c-0.002,0.16,0.071,0.215,0.226,0.211c0.26-0.008,0.519,0,0.776-0.004c0.236-0.002,0.26-0.021,0.257,0.271
		c-0.004,0.232,0.003,0.467-0.003,0.7c-0.004,0.151,0.049,0.229,0.212,0.225c0.258-0.006,0.518-0.008,0.774,0.001
		c0.179,0.006,0.242-0.068,0.233-0.24c-0.008-0.209-0.003-0.418-0.001-0.627C4.72,12,4.674,12,5.027,12
		c0.234,0.002,0.469-0.004,0.701,0.004c0.154,0.006,0.229-0.047,0.226-0.209c-0.005-0.258-0.007-0.516,0-0.774
		c0.006-0.159-0.058-0.22-0.215-0.213c-0.26,0.01-0.519-0.011-0.776,0.006c-0.203,0.013-0.258-0.071-0.247-0.258
		c0.012-0.196,0.001-0.394,0.002-0.591c0.005-0.325,0.007-0.32,0.318-0.406c1.221-0.336,2.131-1.063,2.661-2.212
		C8.29,6.063,8.211,4.794,7.511,3.565C7.367,3.313,7.363,3.313,7.563,3.111c0.294-0.297,0.589-0.595,0.89-0.887
		C8.506,2.173,8.54,2.067,8.667,2.11c0,0.279,0.006,0.562-0.002,0.844C8.661,3.113,8.725,3.176,8.882,3.172
		c0.233-0.006,0.468-0.006,0.7,0c0.145,0.003,0.196-0.056,0.192-0.197c-0.006-0.271,0-0.541,0-0.812
		C9.774,1.534,9.774,0.908,9.772,0.279z M4.004,8.592c-1.79-0.024-2.981-1.557-2.902-2.99C1.058,4.074,2.433,2.639,4.115,2.687
		c1.576,0.044,2.888,1.356,2.88,2.951C6.989,7.286,5.653,8.618,4.004,8.592z M4.075,5.96c0.516,0,1.031-0.003,1.547,0
		C5.9,5.963,5.9,5.968,5.908,6.252c0.019,0.681,0.019,0.681-0.671,0.681c-0.896-0.001-1.792,0-2.688-0.001
		C2.221,6.931,2.221,6.928,2.216,6.623C2.204,5.959,2.204,5.959,2.86,5.96c0.209,0,0.417-0.001,0.625-0.001
		C3.683,5.959,3.879,5.959,4.075,5.96z M4.033,5.368c-0.527,0-1.056-0.005-1.583,0.003C2.283,5.373,2.197,5.334,2.214,5.147
		c0.021-0.23-0.089-0.518,0.043-0.681c0.143-0.176,0.438-0.06,0.666-0.062c0.896-0.01,1.792-0.006,2.688-0.003
		c0.288,0.001,0.29,0.006,0.298,0.28c0.002,0.16-0.009,0.32,0,0.478c0.01,0.166-0.063,0.212-0.218,0.211
		C5.138,5.365,4.586,5.368,4.033,5.368z"/>
</g>
</svg>
