<?xml version="1.0" encoding="utf-8"?>
<!-- Generator: Adobe Illustrator 16.0.0, SVG Export Plug-In . SVG Version: 6.00 Build 0)  -->
<!DOCTYPE svg PUBLIC "-//W3C//DTD SVG 1.1//EN" "http://www.w3.org/Graphics/SVG/1.1/DTD/svg11.dtd">
<svg version="1.1" id="Layer_1" xmlns="http://www.w3.org/2000/svg" xmlns:xlink="http://www.w3.org/1999/xlink" x="0px" y="0px"
	 width="12.708px" height="13.2px" viewBox="0 0 12.708 13.2" enable-background="new 0 0 12.708 13.2" xml:space="preserve">
<g id="Layer_2" display="none">
	
		<rect x="-200.232" y="-88.334" display="inline" fill="#421212" stroke="#000000" stroke-width="1.5602" stroke-miterlimit="10" width="675" height="160.667"/>
</g>
<g id="Layer_1_1_">
	<rect x="-187.732" y="-83.709" display="none" fill="#E11484" width="655.5" height="106.75"/>
	<path fill="#E11484" d="M12.436,5.228c0.552,1.923,0.268,3.728-0.889,5.345c-1.351,1.889-3.241,2.766-5.544,2.61
		C3.294,13,0.946,10.986,0.236,8.355C-0.81,4.471,1.734,0.604,5.734,0.064c1.911-0.258,3.632,0.268,5.123,1.501
		c0.29,0.239,0.29,0.307,0.029,0.565c-0.179,0.179-0.36,0.352-0.54,0.531c-0.123,0.124-0.251,0.135-0.389,0.021
		C9.909,2.639,9.857,2.596,9.806,2.555C6.618-0.008,1.894,1.746,1.181,5.774C0.81,7.874,1.56,9.61,3.128,10.973
		c3.295,2.861,8.434,1.046,9.253-3.243c0.131-0.686,0.14-1.37,0.007-2.057c-0.019-0.091-0.021-0.186-0.031-0.277
		C12.327,5.313,12.286,5.226,12.436,5.228z M9.012,8.575c0.404,0,0.404-0.003,0.406-0.423c0-0.187,0.002-0.372,0-0.56
		C9.417,7.223,9.415,7.221,9.049,7.22C7.695,7.217,6.342,7.219,4.988,7.219c-0.266,0-0.531,0.011-0.797-0.004
		c-0.213-0.01-0.282,0.082-0.274,0.281c0.009,0.239,0,0.479,0.002,0.717c0.006,0.354,0.007,0.359,0.354,0.361
		c0.797,0.002,1.592,0,2.388,0C7.444,8.575,8.229,8.577,9.012,8.575z M6.665,4.941c-0.239,0-0.479,0-0.718,0
		C5.363,4.943,4.778,4.947,4.194,4.943C3.999,4.941,3.9,4.999,3.915,5.219c0.017,0.278,0.006,0.558,0.004,0.838
		c-0.001,0.146,0.06,0.226,0.21,0.224c0.094,0,0.187,0.002,0.279,0.002c1.383,0,2.764,0,4.147,0c0.173,0,0.346,0.002,0.518,0
		c0.34-0.006,0.342-0.006,0.346-0.363c0.002-0.2,0-0.398,0-0.598C9.417,4.945,9.417,4.943,9.055,4.943c-0.797,0-1.594,0-2.39,0
		C6.665,4.943,6.665,4.942,6.665,4.941z"/>
</g>
</svg>
