<?xml version="1.0" encoding="utf-8"?>
<!-- Generator: Adobe Illustrator 16.0.0, SVG Export Plug-In . SVG Version: 6.00 Build 0)  -->
<!DOCTYPE svg PUBLIC "-//W3C//DTD SVG 1.1//EN" "http://www.w3.org/Graphics/SVG/1.1/DTD/svg11.dtd">
<svg version="1.1" id="Layer_1" xmlns="http://www.w3.org/2000/svg" xmlns:xlink="http://www.w3.org/1999/xlink" x="0px" y="0px"
	 width="13.477px" height="13.2px" viewBox="0 0 13.477 13.2" enable-background="new 0 0 13.477 13.2" xml:space="preserve">
<g id="Layer_2" display="none">
	
		<rect x="-348.677" y="-87.791" display="inline" fill="#421212" stroke="#000000" stroke-width="1.5602" stroke-miterlimit="10" width="675" height="160.667"/>
</g>
<g id="Layer_1_1_">
	<rect x="-336.177" y="-83.166" display="none" fill="#183668" width="655.5" height="106.75"/>
	<path fill="#183668" d="M13.477,5.859c-0.017-0.203-0.014-0.472-0.075-0.738c-0.351-1.496-1.524-2.566-3.063-2.758
		C10.133,2.337,10.05,2.26,9.966,2.085C9.327,0.747,8.257,0.016,6.778,0S4.215,0.701,3.549,2.024
		C3.442,2.232,3.345,2.331,3.093,2.373C1.642,2.61,0.617,3.412,0.18,4.831C-0.251,6.228,0.1,7.463,1.157,8.479
		C1.32,8.635,1.336,8.776,1.303,8.975c-0.246,1.447,0.203,2.648,1.382,3.514c1.195,0.877,2.493,0.93,3.803,0.237
		c0.227-0.12,0.368-0.089,0.578,0.017c1.294,0.643,2.563,0.576,3.733-0.271c1.179-0.854,1.604-2.058,1.397-3.478
		c-0.036-0.25,0.005-0.392,0.178-0.555C13.093,7.758,13.46,6.916,13.477,5.859z M9.554,3.327C9.577,3.708,9.521,4.078,9.4,4.438
		C9.066,5.42,8.202,6.141,7.178,6.277C6.949,4.972,7.779,3.621,9.087,3.214C9.164,3.19,9.242,3.172,9.319,3.149
		C9.479,3.104,9.544,3.176,9.554,3.327z M9.241,6.862c0.807,0.163,1.423,0.6,1.863,1.285c0.129,0.201,0.115,0.243-0.092,0.327
		C9.616,9.04,8.03,8.407,7.454,7.116C8.024,6.839,8.612,6.736,9.241,6.862z M6.513,0.73c1.244-0.06,2.351,0.593,2.761,1.657
		C8.016,2.753,7.574,3.088,6.735,4.311C6.449,3.822,6.121,3.389,5.68,3.054C5.244,2.726,4.75,2.532,4.232,2.393
		C4.474,1.544,5.532,0.779,6.513,0.73z M4.015,3.187C4.229,3.03,4.518,3.242,4.754,3.354C6.04,3.962,6.527,5.355,6.293,6.277
		C5.048,6.072,4.124,5.121,3.969,3.913C3.937,3.662,3.819,3.331,4.015,3.187z M6.004,7.147c-0.601,1.467-2.61,1.919-3.699,1.209
		C2.916,6.993,4.76,6.426,6.004,7.147z M0.844,5.102c0.311-1.067,1.313-1.92,2.363-1.971C3.126,4.272,3.48,5.265,4.289,6.095
		c-1.477,0.458-1.797,0.68-2.627,1.801C0.95,7.413,0.534,6.159,0.844,5.102z M4.492,12.438c-1.54-0.146-2.683-1.551-2.52-3.09
		C2,9.112,2.022,9.09,2.244,9.174c0.951,0.353,1.89,0.33,2.814-0.096C5.094,9.064,5.136,9.07,5.195,9.064
		c0,0.539-0.029,1.071,0.139,1.593c0.168,0.52,0.449,0.969,0.813,1.414C5.62,12.383,5.075,12.495,4.492,12.438z M6.945,11.407
		c-0.174,0.217-0.189,0.215-0.363,0.025c-0.889-0.969-0.887-2.661-0.004-3.633c0.124-0.139,0.207-0.127,0.314,0.007
		c0.443,0.539,0.691,1.147,0.676,1.825C7.576,10.317,7.357,10.897,6.945,11.407z M10.4,11.857c-0.933,0.698-1.948,0.757-3.042,0.22
		c0.751-0.875,1.066-1.871,0.898-3.063c1.082,0.506,2.14,0.535,3.224,0.068C11.644,10.249,11.302,11.182,10.4,11.857z M11.84,7.922
		c-0.59-0.983-1.438-1.608-2.646-1.816c0.392-0.437,0.707-0.878,0.89-1.399c0.181-0.513,0.215-1.044,0.199-1.612
		c1.146,0.194,1.909,0.807,2.304,1.86C12.95,5.927,12.706,7.167,11.84,7.922z"/>
</g>
</svg>
